<?xml version="1.0" encoding="UTF-8"?>
<!DOCTYPE svg PUBLIC "-//W3C//DTD SVG 1.1//EN" "http://www.w3.org/Graphics/SVG/1.1/DTD/svg11.dtd">
<svg xmlns="http://www.w3.org/2000/svg" version="1.1" width="484px" height="458px" style="shape-rendering:geometricPrecision; text-rendering:geometricPrecision; image-rendering:optimizeQuality; fill-rule:evenodd; clip-rule:evenodd" xmlns:xlink="http://www.w3.org/1999/xlink">
<g><path style="opacity:1" fill="#fdfdfd" d="M -0.5,-0.5 C 160.833,-0.5 322.167,-0.5 483.5,-0.5C 483.5,152.167 483.5,304.833 483.5,457.5C 322.167,457.5 160.833,457.5 -0.5,457.5C -0.5,304.833 -0.5,152.167 -0.5,-0.5 Z"/></g>
<g><path style="opacity:1" fill="#161819" d="M 263.5,28.5 C 260.612,29.8035 258.778,28.8035 258,25.5C 257.147,27.1247 256.147,27.4581 255,26.5C 254.45,29.2634 253.617,31.9301 252.5,34.5C 253.115,36.1161 254.115,37.4495 255.5,38.5C 256.592,37.1691 257.926,36.3357 259.5,36C 258.269,34.8173 258.269,33.6507 259.5,32.5C 260.981,33.4803 262.315,34.647 263.5,36C 262.692,36.3076 262.025,36.8076 261.5,37.5C 263.433,40.3669 265.099,43.3669 266.5,46.5C 265.9,48.4677 264.567,49.4677 262.5,49.5C 259.667,45.8348 256.334,42.6682 252.5,40C 250.735,39.3603 249.068,39.5269 247.5,40.5C 244.256,39.3813 242.589,40.7146 242.5,44.5C 239.756,44.2003 238.089,45.367 237.5,48C 237.387,49.6991 238.053,50.8658 239.5,51.5C 242.287,52.4767 245.287,52.81 248.5,52.5C 247.068,54.6469 245.235,54.9802 243,53.5C 239.411,55.5686 235.911,57.9019 232.5,60.5C 233.047,62.712 232.047,64.3787 229.5,65.5C 229.167,64.8333 228.833,64.1667 228.5,63.5C 224.123,64.5844 219.623,65.2511 215,65.5C 213.723,61.6765 212.057,58.0099 210,54.5C 207.422,59.2271 205.422,64.2271 204,69.5C 203.424,67.6226 203.591,65.7892 204.5,64C 203.87,62.6898 202.87,61.8565 201.5,61.5C 216.634,46.5337 231.967,31.7004 247.5,17C 249.635,16.3653 251.635,16.6986 253.5,18C 257.037,21.3691 260.371,24.8691 263.5,28.5 Z"/></g>
<g><path style="opacity:1" fill="#f5f5f6" d="M 262.5,49.5 C 257.833,50.5 253.167,51.5 248.5,52.5C 245.287,52.81 242.287,52.4767 239.5,51.5C 239.351,50.448 239.517,49.448 240,48.5C 242.705,45.9638 245.205,43.2971 247.5,40.5C 249.068,39.5269 250.735,39.3603 252.5,40C 256.334,42.6682 259.667,45.8348 262.5,49.5 Z"/></g>
<g><path style="opacity:1" fill="#484949" d="M 247.5,40.5 C 245.205,43.2971 242.705,45.9638 240,48.5C 239.517,49.448 239.351,50.448 239.5,51.5C 238.053,50.8658 237.387,49.6991 237.5,48C 238.089,45.367 239.756,44.2003 242.5,44.5C 242.589,40.7146 244.256,39.3813 247.5,40.5 Z"/></g>
<g><path style="opacity:1" fill="#0c1013" d="M 263.5,28.5 C 275.17,36.9872 286.17,46.4872 296.5,57C 300.936,58.6407 304.603,61.1407 307.5,64.5C 308.353,67.5179 310.353,69.3512 313.5,70C 312.398,72.4009 312.231,74.9009 313,77.5C 313.333,76.5 313.667,75.5 314,74.5C 314.576,77.1242 315.91,77.7908 318,76.5C 320.034,77.8621 322.201,78.8621 324.5,79.5C 324.357,81.2624 324.691,82.9291 325.5,84.5C 325.192,85.3081 324.692,85.9747 324,86.5C 322.887,85.2889 321.72,85.2889 320.5,86.5C 318.577,81.9606 315.744,80.9606 312,83.5C 311.544,82.2559 312.044,81.4226 313.5,81C 310.833,80.3333 308.167,80.3333 305.5,81C 302.495,82.1697 299.495,83.3364 296.5,84.5C 295.353,84.1822 294.519,83.5156 294,82.5C 293.151,85.5214 292.317,88.5214 291.5,91.5C 294.914,91.9266 297.748,90.9266 300,88.5C 302.475,90.7516 305.141,90.7516 308,88.5C 308.717,89.0442 309.217,89.7109 309.5,90.5C 301.268,92.6409 292.935,94.3076 284.5,95.5C 283.167,95.5 281.833,95.5 280.5,95.5C 280.649,96.552 280.483,97.552 280,98.5C 278.5,97.3333 277,96.1667 275.5,95C 277.904,94.4921 278.571,93.3255 277.5,91.5C 274.167,90.8333 270.833,90.1667 267.5,89.5C 269.487,87.6726 271.821,86.6726 274.5,86.5C 281.569,89.0492 286.069,86.7159 288,79.5C 288.333,80.1667 288.667,80.8333 289,81.5C 289.864,77.9661 289.031,74.9661 286.5,72.5C 286.5,72.1667 286.5,71.8333 286.5,71.5C 285.025,69.5905 283.025,68.4238 280.5,68C 268.201,66.5185 255.868,66.1851 243.5,67C 238.85,68.1055 234.35,69.6055 230,71.5C 226.334,69.5864 223.5,70.4197 221.5,74C 214.28,75.7709 207.946,78.9375 202.5,83.5C 195.041,81.5202 193.707,77.5202 198.5,71.5C 198.167,70.8333 197.833,70.1667 197.5,69.5C 198.513,66.5396 199.846,63.8729 201.5,61.5C 202.87,61.8565 203.87,62.6898 204.5,64C 203.591,65.7892 203.424,67.6226 204,69.5C 205.422,64.2271 207.422,59.2271 210,54.5C 212.057,58.0099 213.723,61.6765 215,65.5C 219.623,65.2511 224.123,64.5844 228.5,63.5C 228.833,64.1667 229.167,64.8333 229.5,65.5C 232.047,64.3787 233.047,62.712 232.5,60.5C 235.911,57.9019 239.411,55.5686 243,53.5C 245.235,54.9802 247.068,54.6469 248.5,52.5C 253.167,51.5 257.833,50.5 262.5,49.5C 264.567,49.4677 265.9,48.4677 266.5,46.5C 265.099,43.3669 263.433,40.3669 261.5,37.5C 262.025,36.8076 262.692,36.3076 263.5,36C 262.315,34.647 260.981,33.4803 259.5,32.5C 258.269,33.6507 258.269,34.8173 259.5,36C 257.926,36.3357 256.592,37.1691 255.5,38.5C 254.115,37.4495 253.115,36.1161 252.5,34.5C 253.617,31.9301 254.45,29.2634 255,26.5C 256.147,27.4581 257.147,27.1247 258,25.5C 258.778,28.8035 260.612,29.8035 263.5,28.5 Z"/></g>
<g><path style="opacity:1" fill="#4d4f56" d="M 286.5,71.5 C 256.89,65.2039 229.224,69.8706 203.5,85.5C 203.167,84.8333 202.833,84.1667 202.5,83.5C 207.946,78.9375 214.28,75.7709 221.5,74C 223.5,70.4197 226.334,69.5864 230,71.5C 234.35,69.6055 238.85,68.1055 243.5,67C 255.868,66.1851 268.201,66.5185 280.5,68C 283.025,68.4238 285.025,69.5905 286.5,71.5 Z"/></g>
<g><path style="opacity:1" fill="#f8f8f7" d="M 286.5,71.5 C 286.5,71.8333 286.5,72.1667 286.5,72.5C 286.638,80.2008 282.971,83.3674 275.5,82C 272.106,80.9245 268.772,79.7578 265.5,78.5C 252.88,74.7817 240.213,74.615 227.5,78C 219.935,80.7007 212.435,83.534 205,86.5C 204.235,86.4301 203.735,86.0967 203.5,85.5C 229.224,69.8706 256.89,65.2039 286.5,71.5 Z"/></g>
<g><path style="opacity:1" fill="#705b45" d="M 286.5,72.5 C 289.031,74.9661 289.864,77.9661 289,81.5C 288.667,80.8333 288.333,80.1667 288,79.5C 286.069,86.7159 281.569,89.0492 274.5,86.5C 272.682,84.4331 270.349,83.0997 267.5,82.5C 266.638,81.2342 265.971,79.9008 265.5,78.5C 268.772,79.7578 272.106,80.9245 275.5,82C 282.971,83.3674 286.638,80.2008 286.5,72.5 Z"/></g>
<g><path style="opacity:1" fill="#464749" d="M 122.5,87.5 C 139.975,87.3902 157.642,87.3902 175.5,87.5C 169.342,88.3973 163.009,89.064 156.5,89.5C 145.153,88.8597 133.82,88.193 122.5,87.5 Z"/></g>
<g><path style="opacity:1" fill="#4c4d4e" d="M 120.5,87.5 C 119.08,91.6467 119.413,95.6467 121.5,99.5C 116.929,97.0042 115.762,93.3375 118,88.5C 118.671,87.7476 119.504,87.4142 120.5,87.5 Z"/></g>
<g><path style="opacity:1" fill="#14171b" d="M 95.5,88.5 C 99.8333,88.5 104.167,88.5 108.5,88.5C 108.5,90.8333 108.5,93.1667 108.5,95.5C 107.448,95.3505 106.448,95.5172 105.5,96C 106.337,97.0113 106.67,98.1779 106.5,99.5C 97.7883,102.968 92.455,100.301 90.5,91.5C 92.9328,91.7271 94.5994,90.7271 95.5,88.5 Z"/></g>
<g><path style="opacity:1" fill="#141313" d="M 201.5,61.5 C 199.846,63.8729 198.513,66.5396 197.5,69.5C 197.833,70.1667 198.167,70.8333 198.5,71.5C 193.707,77.5202 195.041,81.5202 202.5,83.5C 202.833,84.1667 203.167,84.8333 203.5,85.5C 203.735,86.0967 204.235,86.4301 205,86.5C 212.435,83.534 219.935,80.7007 227.5,78C 240.213,74.615 252.88,74.7817 265.5,78.5C 265.971,79.9008 266.638,81.2342 267.5,82.5C 270.349,83.0997 272.682,84.4331 274.5,86.5C 271.821,86.6726 269.487,87.6726 267.5,89.5C 270.833,90.1667 274.167,90.8333 277.5,91.5C 278.571,93.3255 277.904,94.4921 275.5,95C 277,96.1667 278.5,97.3333 280,98.5C 280.483,97.552 280.649,96.552 280.5,95.5C 281.833,95.5 283.167,95.5 284.5,95.5C 283.086,97.5983 283.752,98.5983 286.5,98.5C 286.169,101.825 285.836,105.159 285.5,108.5C 285.382,111.486 286.048,114.152 287.5,116.5C 287.263,117.791 287.596,118.791 288.5,119.5C 288.5,120.833 288.5,122.167 288.5,123.5C 288.771,128.913 288.271,134.246 287,139.5C 284.792,129.735 282.125,120.069 279,110.5C 277.371,110.836 275.871,110.17 274.5,108.5C 270.731,104.229 266.731,100.062 262.5,96C 260.423,94.295 258.09,93.1283 255.5,92.5C 253.093,91.2883 250.76,89.7883 248.5,88C 241.833,87.3333 235.167,87.3333 228.5,88C 223.604,89.9462 218.604,91.6128 213.5,93C 212.748,93.6708 212.414,94.5041 212.5,95.5C 203.263,101.401 194.93,108.401 187.5,116.5C 187.157,113.281 187.824,111.114 189.5,110C 188.784,107.208 188.451,104.374 188.5,101.5C 189.5,101.5 190.5,101.5 191.5,101.5C 191.374,99.8002 190.707,98.3002 189.5,97C 189.944,95.2382 190.444,95.4049 191,97.5C 191.944,96.737 192.444,95.737 192.5,94.5C 191.294,91.2281 191.627,87.7281 193.5,84C 191.071,83.5488 190.904,82.7155 193,81.5C 195.129,82.8627 195.629,82.5294 194.5,80.5C 191.893,79.6816 189.226,79.1816 186.5,79C 187.738,78.31 187.738,77.81 186.5,77.5C 190.795,71.5374 195.795,66.204 201.5,61.5 Z"/></g>
<g><path style="opacity:1" fill="#6f291a" d="M 255.5,92.5 C 258.09,93.1283 260.423,94.295 262.5,96C 266.731,100.062 270.731,104.229 274.5,108.5C 275.038,110.117 275.371,111.784 275.5,113.5C 274.833,112.833 274.167,112.167 273.5,111.5C 268.787,106.283 263.787,101.116 258.5,96C 257.552,95.5172 256.552,95.3505 255.5,95.5C 255.5,94.5 255.5,93.5 255.5,92.5 Z"/></g>
<g><path style="opacity:1" fill="#633520" d="M 255.5,92.5 C 252.426,92.1274 249.426,91.4608 246.5,90.5C 237.758,87.1765 229.424,88.1765 221.5,93.5C 219.901,93.2322 218.568,93.5655 217.5,94.5C 215.784,94.6287 214.117,94.962 212.5,95.5C 212.414,94.5041 212.748,93.6708 213.5,93C 218.604,91.6128 223.604,89.9462 228.5,88C 235.167,87.3333 241.833,87.3333 248.5,88C 250.76,89.7883 253.093,91.2883 255.5,92.5 Z"/></g>
<g><path style="opacity:1" fill="#e6804a" d="M 246.5,90.5 C 242.429,90.2338 238.429,90.5672 234.5,91.5C 233.611,94.2787 232.444,96.9454 231,99.5C 226.176,104.137 221.009,108.137 215.5,111.5C 215.369,110.761 215.536,110.094 216,109.5C 220.906,106.773 224.073,102.773 225.5,97.5C 224.167,97.5 222.833,97.5 221.5,97.5C 221.5,96.1667 221.5,94.8333 221.5,93.5C 229.424,88.1765 237.758,87.1765 246.5,90.5 Z"/></g>
<g><path style="opacity:1" fill="#797673" d="M 311.5,95.5 C 309.841,94.0298 307.841,93.3631 305.5,93.5C 299.087,94.9727 292.754,96.6394 286.5,98.5C 283.752,98.5983 283.086,97.5983 284.5,95.5C 292.935,94.3076 301.268,92.6409 309.5,90.5C 311.371,90.1412 312.871,89.1412 314,87.5C 314.667,89.8333 314.667,92.1667 314,94.5C 313.329,95.2524 312.496,95.5858 311.5,95.5 Z"/></g>
<g><path style="opacity:1" fill="#3d2718" d="M 311.5,95.5 C 312.854,99.8422 312.688,104.176 311,108.5C 307.263,115.775 303.097,122.775 298.5,129.5C 298.873,126.426 299.539,123.426 300.5,120.5C 302.55,118.763 304.383,116.763 306,114.5C 306.841,109.811 307.674,105.144 308.5,100.5C 302.648,100.695 296.648,100.862 290.5,101C 289.667,101.833 288.833,102.667 288,103.5C 287.501,107.821 287.334,112.154 287.5,116.5C 286.048,114.152 285.382,111.486 285.5,108.5C 285.836,105.159 286.169,101.825 286.5,98.5C 292.754,96.6394 299.087,94.9727 305.5,93.5C 307.841,93.3631 309.841,94.0298 311.5,95.5 Z"/></g>
<g><path style="opacity:1" fill="#f3caae" d="M 217.5,94.5 C 218.568,93.5655 219.901,93.2322 221.5,93.5C 221.5,94.8333 221.5,96.1667 221.5,97.5C 222.833,97.5 224.167,97.5 225.5,97.5C 224.073,102.773 220.906,106.773 216,109.5C 215.536,110.094 215.369,110.761 215.5,111.5C 212.081,115.331 209.414,119.665 207.5,124.5C 199.777,127.557 194.443,132.89 191.5,140.5C 187.879,140.708 184.546,141.708 181.5,143.5C 182.234,142.292 182.567,140.959 182.5,139.5C 184.359,138.406 186.359,137.573 188.5,137C 199.746,126.757 209.912,115.59 219,103.5C 220.289,100.649 220.789,97.6492 220.5,94.5C 219.5,94.5 218.5,94.5 217.5,94.5 Z"/></g>
<g><path style="opacity:1" fill="#fbfaf9" d="M 217.5,94.5 C 218.5,94.5 219.5,94.5 220.5,94.5C 220.789,97.6492 220.289,100.649 219,103.5C 209.912,115.59 199.746,126.757 188.5,137C 186.359,137.573 184.359,138.406 182.5,139.5C 180.738,139.357 179.071,139.691 177.5,140.5C 176.702,140.043 176.369,139.376 176.5,138.5C 179.642,130.883 183.308,123.55 187.5,116.5C 194.93,108.401 203.263,101.401 212.5,95.5C 214.117,94.962 215.784,94.6287 217.5,94.5 Z"/></g>
<g><path style="opacity:1" fill="#b6b8b9" d="M 147.5,101.5 C 155.5,101.5 163.5,101.5 171.5,101.5C 171.784,103.415 171.451,105.081 170.5,106.5C 170.5,105.167 170.5,103.833 170.5,102.5C 162.648,102.825 154.982,102.492 147.5,101.5 Z"/></g>
<g><path style="opacity:1" fill="#f23e02" d="M 246.5,90.5 C 249.426,91.4608 252.426,92.1274 255.5,92.5C 255.5,93.5 255.5,94.5 255.5,95.5C 256.552,95.3505 257.552,95.5172 258.5,96C 263.787,101.116 268.787,106.283 273.5,111.5C 273.952,117.649 275.785,123.316 279,128.5C 280.609,136.827 279.109,144.494 274.5,151.5C 272.443,153.477 270.109,154.977 267.5,156C 266.663,157.011 266.33,158.178 266.5,159.5C 264.265,159.205 262.265,159.539 260.5,160.5C 257.269,159.632 253.935,159.632 250.5,160.5C 250.106,156.776 250.773,153.276 252.5,150C 249.198,149.228 248.865,147.228 251.5,144C 250.718,141.26 250.218,138.426 250,135.5C 247.48,137.337 245.314,139.504 243.5,142C 244.952,143.565 246.619,144.898 248.5,146C 245.833,146.667 243.167,146.667 240.5,146C 239.874,145.25 239.374,144.416 239,143.5C 237.323,145.525 236.323,147.859 236,150.5C 235.25,151.126 234.416,151.626 233.5,152C 234.451,152.718 234.617,153.551 234,154.5C 231.517,156.148 229.684,158.315 228.5,161C 231.167,161.667 231.167,162.333 228.5,163C 229.833,163.667 229.833,164.333 228.5,165C 221.957,167.576 215.957,166.576 210.5,162C 213.276,160.221 212.943,159.221 209.5,159C 210.622,157.387 210.122,156.22 208,155.5C 207.5,157.333 206.333,158.5 204.5,159C 201.518,159.498 198.518,159.665 195.5,159.5C 195.67,158.178 195.337,157.011 194.5,156C 193.175,156.148 192.008,155.982 191,155.5C 190.324,159.213 190.491,163.047 191.5,167C 190.514,170.625 189.347,174.125 188,177.5C 185.181,174.028 183.014,170.195 181.5,166C 182.254,162.912 183.42,162.746 185,165.5C 185.45,163.481 186.283,161.648 187.5,160C 185.349,159.735 183.682,158.735 182.5,157C 182.833,156.5 183.167,156 183.5,155.5C 186.445,158.298 188.445,157.631 189.5,153.5C 188.167,153.167 186.833,152.833 185.5,152.5C 186.246,151.264 186.579,149.93 186.5,148.5C 188.451,148.227 189.951,148.893 191,150.5C 191.483,149.552 191.649,148.552 191.5,147.5C 193.144,147.714 194.644,147.38 196,146.5C 196.668,141.514 198.168,136.848 200.5,132.5C 202.541,129.466 204.875,126.8 207.5,124.5C 209.414,119.665 212.081,115.331 215.5,111.5C 221.009,108.137 226.176,104.137 231,99.5C 232.444,96.9454 233.611,94.2787 234.5,91.5C 238.429,90.5672 242.429,90.2338 246.5,90.5 Z"/></g>
<g><path style="opacity:1" fill="#633417" d="M 300.5,120.5 C 300.5,119.167 300.5,117.833 300.5,116.5C 301.458,116.047 302.292,115.381 303,114.5C 304.772,110.687 305.605,106.687 305.5,102.5C 300.489,102.334 295.489,102.501 290.5,103C 289.874,103.75 289.374,104.584 289,105.5C 288.501,110.155 288.334,114.821 288.5,119.5C 287.596,118.791 287.263,117.791 287.5,116.5C 287.334,112.154 287.501,107.821 288,103.5C 288.833,102.667 289.667,101.833 290.5,101C 296.648,100.862 302.648,100.695 308.5,100.5C 307.674,105.144 306.841,109.811 306,114.5C 304.383,116.763 302.55,118.763 300.5,120.5 Z"/></g>
<g><path style="opacity:1" fill="#95562f" d="M 300.5,116.5 C 301.934,113.302 302.434,109.968 302,106.5C 298.457,105.042 295.29,105.709 292.5,108.5C 291.531,116.444 291.198,124.444 291.5,132.5C 290.626,129.465 289.626,126.465 288.5,123.5C 288.5,122.167 288.5,120.833 288.5,119.5C 288.334,114.821 288.501,110.155 289,105.5C 289.374,104.584 289.874,103.75 290.5,103C 295.489,102.501 300.489,102.334 305.5,102.5C 305.605,106.687 304.772,110.687 303,114.5C 302.292,115.381 301.458,116.047 300.5,116.5 Z"/></g>
<g><path style="opacity:1" fill="#ec8446" d="M 363.5,95.5 C 364.29,96.6085 364.79,97.9419 365,99.5C 365.499,104.155 365.666,108.821 365.5,113.5C 365.167,113.5 364.833,113.5 364.5,113.5C 364.299,107.491 363.966,101.491 363.5,95.5 Z"/></g>
<g><path style="opacity:1" fill="#0e0f13" d="M 44.5,108.5 C 45.4959,108.414 46.3292,108.748 47,109.5C 47.1667,111.167 47.3333,112.833 47.5,114.5C 47.712,117.011 47.0454,119.178 45.5,121C 40.6478,121.815 35.9811,121.648 31.5,120.5C 29.9983,116.658 29.3316,112.658 29.5,108.5C 34.5,108.5 39.5,108.5 44.5,108.5 Z"/></g>
<g><path style="opacity:1" fill="#515457" d="M 130.5,109.5 C 106.172,110.153 81.8388,110.486 57.5,110.5C 57.0074,112.806 56.6741,115.139 56.5,117.5C 55.2243,114.97 55.2243,112.303 56.5,109.5C 81.3301,108.171 105.997,108.171 130.5,109.5 Z"/></g>
<g><path style="opacity:1" fill="#0e1216" d="M 186.5,77.5 C 187.738,77.81 187.738,78.31 186.5,79C 189.226,79.1816 191.893,79.6816 194.5,80.5C 195.629,82.5294 195.129,82.8627 193,81.5C 190.904,82.7155 191.071,83.5488 193.5,84C 191.627,87.7281 191.294,91.2281 192.5,94.5C 192.444,95.737 191.944,96.737 191,97.5C 190.444,95.4049 189.944,95.2382 189.5,97C 190.707,98.3002 191.374,99.8002 191.5,101.5C 190.5,101.5 189.5,101.5 188.5,101.5C 188.451,104.374 188.784,107.208 189.5,110C 187.824,111.114 187.157,113.281 187.5,116.5C 183.308,123.55 179.642,130.883 176.5,138.5C 174.953,139.768 173.953,141.435 173.5,143.5C 172.29,143.932 171.29,144.599 170.5,145.5C 170.087,147.89 169.421,150.223 168.5,152.5C 168.324,150.114 168.324,147.448 168.5,144.5C 167.127,144.343 165.793,144.51 164.5,145C 164.833,146 165.167,147 165.5,148C 164.901,157.167 163.901,166.334 162.5,175.5C 162.532,164.754 162.532,154.254 162.5,144C 160.479,143.487 158.979,142.32 158,140.5C 157.395,142.481 156.395,142.815 155,141.5C 154.005,142.066 153.172,142.733 152.5,143.5C 140.5,143.5 128.5,143.5 116.5,143.5C 107.697,143.135 99.0302,141.968 90.5,140C 85.1149,139.267 79.7815,139.433 74.5,140.5C 72.9735,139.508 72.3068,138.008 72.5,136C 72.6032,134.439 72.9366,132.939 73.5,131.5C 102.493,130.483 131.493,129.816 160.5,129.5C 162.745,127.583 163.078,125.25 161.5,122.5C 158.215,121.676 154.882,121.176 151.5,121C 120.835,120.5 90.1685,120.333 59.5,120.5C 57.5,120.5 56.5,119.5 56.5,117.5C 56.6741,115.139 57.0074,112.806 57.5,110.5C 81.8388,110.486 106.172,110.153 130.5,109.5C 143.833,109.5 157.167,109.5 170.5,109.5C 170.5,108.5 170.5,107.5 170.5,106.5C 171.451,105.081 171.784,103.415 171.5,101.5C 163.5,101.5 155.5,101.5 147.5,101.5C 139.16,101.666 130.827,101.5 122.5,101C 121.944,100.617 121.611,100.117 121.5,99.5C 119.413,95.6467 119.08,91.6467 120.5,87.5C 121.167,87.5 121.833,87.5 122.5,87.5C 133.82,88.193 145.153,88.8597 156.5,89.5C 163.009,89.064 169.342,88.3973 175.5,87.5C 179.121,84.2171 182.787,80.8838 186.5,77.5 Z"/></g>
<g><path style="opacity:1" fill="#6b6c70" d="M 44.5,108.5 C 39.5,108.5 34.5,108.5 29.5,108.5C 29.3316,112.658 29.9983,116.658 31.5,120.5C 29.5891,120.426 28.4224,119.426 28,117.5C 25.577,109.661 28.4103,105.994 36.5,106.5C 39.4857,106.382 42.1524,107.048 44.5,108.5 Z"/></g>
<g><path style="opacity:1" fill="#d57c3c" d="M 300.5,116.5 C 298.332,120.841 296.832,125.508 296,130.5C 294.871,132.141 293.371,133.141 291.5,133.5C 291.5,133.167 291.5,132.833 291.5,132.5C 291.198,124.444 291.531,116.444 292.5,108.5C 295.29,105.709 298.457,105.042 302,106.5C 302.434,109.968 301.934,113.302 300.5,116.5 Z"/></g>
<g><path style="opacity:1" fill="#4d5053" d="M 59.5,120.5 C 90.1685,120.333 120.835,120.5 151.5,121C 154.882,121.176 158.215,121.676 161.5,122.5C 163.078,125.25 162.745,127.583 160.5,129.5C 160.5,127.5 160.5,125.5 160.5,123.5C 127.144,123.917 93.8106,123.417 60.5,122C 59.944,121.617 59.6107,121.117 59.5,120.5 Z"/></g>
<g><path style="opacity:1" fill="#8c4029" d="M 277.5,118.5 C 279.656,121.437 281.156,124.771 282,128.5C 282.817,134.016 282.651,139.35 281.5,144.5C 281.666,139.489 281.499,134.489 281,129.5C 279.241,125.991 278.074,122.325 277.5,118.5 Z"/></g>
<g><path style="opacity:1" fill="#fdb289" d="M 364.5,113.5 C 364.833,113.5 365.167,113.5 365.5,113.5C 365.365,119.181 365.032,124.848 364.5,130.5C 363.833,131.5 363.167,132.5 362.5,133.5C 363.298,126.85 363.965,120.183 364.5,113.5 Z"/></g>
<g><path style="opacity:1" fill="#5c5d5f" d="M 56.5,141.5 C 56.6633,139.143 56.4966,136.81 56,134.5C 48.6347,132.047 41.1347,131.881 33.5,134C 32.6433,134.689 31.9767,135.522 31.5,136.5C 33.0198,138.662 34.0198,140.995 34.5,143.5C 40.1667,143.5 45.8333,143.5 51.5,143.5C 45.6812,144.653 39.6812,144.819 33.5,144C 29.2305,139.291 29.5639,134.958 34.5,131C 41.1667,130.333 47.8333,130.333 54.5,131C 58.8086,134.029 59.4753,137.529 56.5,141.5 Z"/></g>
<g><path style="opacity:1" fill="#4a4e52" d="M 397.5,131.5 C 392.489,131.334 387.489,131.501 382.5,132C 378.689,133.739 374.689,134.572 370.5,134.5C 370.756,132.224 372.09,131.057 374.5,131C 382.345,130.178 390.011,130.344 397.5,131.5 Z"/></g>
<g><path style="opacity:1" fill="#080c0e" d="M 56.5,141.5 C 55.2196,142.931 53.5529,143.598 51.5,143.5C 45.8333,143.5 40.1667,143.5 34.5,143.5C 34.0198,140.995 33.0198,138.662 31.5,136.5C 31.9767,135.522 32.6433,134.689 33.5,134C 41.1347,131.881 48.6347,132.047 56,134.5C 56.4966,136.81 56.6633,139.143 56.5,141.5 Z"/></g>
<g><path style="opacity:1" fill="#93532e" d="M 300.5,116.5 C 300.5,117.833 300.5,119.167 300.5,120.5C 299.539,123.426 298.873,126.426 298.5,129.5C 298.262,131.404 297.262,132.738 295.5,133.5C 294.518,134.141 293.518,134.807 292.5,135.5C 291.702,135.043 291.369,134.376 291.5,133.5C 293.371,133.141 294.871,132.141 296,130.5C 296.832,125.508 298.332,120.841 300.5,116.5 Z"/></g>
<g><path style="opacity:1" fill="#ed4102" d="M 200.5,132.5 C 198.168,136.848 196.668,141.514 196,146.5C 194.644,147.38 193.144,147.714 191.5,147.5C 191.649,148.552 191.483,149.552 191,150.5C 189.951,148.893 188.451,148.227 186.5,148.5C 186.579,149.93 186.246,151.264 185.5,152.5C 186.833,152.833 188.167,153.167 189.5,153.5C 188.445,157.631 186.445,158.298 183.5,155.5C 183.167,156 182.833,156.5 182.5,157C 183.682,158.735 185.349,159.735 187.5,160C 186.283,161.648 185.45,163.481 185,165.5C 183.42,162.746 182.254,162.912 181.5,166C 183.014,170.195 185.181,174.028 188,177.5C 189.347,174.125 190.514,170.625 191.5,167C 190.491,163.047 190.324,159.213 191,155.5C 192.008,155.982 193.175,156.148 194.5,156C 195.337,157.011 195.67,158.178 195.5,159.5C 198.518,159.665 201.518,159.498 204.5,159C 206.333,158.5 207.5,157.333 208,155.5C 210.122,156.22 210.622,157.387 209.5,159C 212.943,159.221 213.276,160.221 210.5,162C 215.957,166.576 221.957,167.576 228.5,165C 229.833,164.333 229.833,163.667 228.5,163C 231.167,162.333 231.167,161.667 228.5,161C 229.684,158.315 231.517,156.148 234,154.5C 234.617,153.551 234.451,152.718 233.5,152C 234.416,151.626 235.25,151.126 236,150.5C 236.323,147.859 237.323,145.525 239,143.5C 239.374,144.416 239.874,145.25 240.5,146C 243.167,146.667 245.833,146.667 248.5,146C 246.619,144.898 244.952,143.565 243.5,142C 245.314,139.504 247.48,137.337 250,135.5C 250.218,138.426 250.718,141.26 251.5,144C 248.865,147.228 249.198,149.228 252.5,150C 250.773,153.276 250.106,156.776 250.5,160.5C 253.935,159.632 257.269,159.632 260.5,160.5C 259.351,163.983 257.018,166.15 253.5,167C 251.235,170.148 248.402,172.648 245,174.5C 244.51,175.793 244.343,177.127 244.5,178.5C 240.896,181.598 236.896,184.098 232.5,186C 230.393,187.264 229.393,189.097 229.5,191.5C 227.03,191.654 225.03,192.654 223.5,194.5C 221.435,194.517 219.435,194.85 217.5,195.5C 211.77,197.071 206.437,199.404 201.5,202.5C 199.167,202.5 196.833,202.5 194.5,202.5C 192.028,201.358 191.028,199.358 191.5,196.5C 187.062,197.575 185.062,195.908 185.5,191.5C 183.533,191.739 181.699,191.406 180,190.5C 178.128,187.795 177.295,184.795 177.5,181.5C 178.003,173.791 178.836,166.124 180,158.5C 182.072,155.029 183.572,151.362 184.5,147.5C 186.717,146.631 189.05,146.298 191.5,146.5C 191.351,145.448 191.517,144.448 192,143.5C 195.08,139.933 197.913,136.267 200.5,132.5 Z"/></g>
<g><path style="opacity:1" fill="#4d5052" d="M 116.5,143.5 C 109.679,144.655 102.679,144.821 95.5,144C 88.0953,143.571 81.0953,142.404 74.5,140.5C 79.7815,139.433 85.1149,139.267 90.5,140C 99.0302,141.968 107.697,143.135 116.5,143.5 Z"/></g>
<g><path style="opacity:1" fill="#2e140e" d="M 274.5,108.5 C 275.871,110.17 277.371,110.836 279,110.5C 282.125,120.069 284.792,129.735 287,139.5C 288.271,134.246 288.771,128.913 288.5,123.5C 289.626,126.465 290.626,129.465 291.5,132.5C 291.5,132.833 291.5,133.167 291.5,133.5C 291.369,134.376 291.702,135.043 292.5,135.5C 293.518,134.807 294.518,134.141 295.5,133.5C 295.66,135.199 295.494,136.866 295,138.5C 293.303,139.364 292.137,140.697 291.5,142.5C 290.311,143.429 288.978,143.762 287.5,143.5C 287.5,145.167 287.5,146.833 287.5,148.5C 286.5,148.5 285.5,148.5 284.5,148.5C 283.393,152.048 281.726,155.381 279.5,158.5C 277.257,159.474 274.924,159.808 272.5,159.5C 277.066,155.916 280.066,151.25 281.5,145.5C 281.5,145.167 281.5,144.833 281.5,144.5C 282.651,139.35 282.817,134.016 282,128.5C 281.156,124.771 279.656,121.437 277.5,118.5C 276.559,116.95 275.893,115.284 275.5,113.5C 275.371,111.784 275.038,110.117 274.5,108.5 Z"/></g>
<g><path style="opacity:1" fill="#717476" d="M 389.5,146.5 C 385.558,146.875 381.891,147.875 378.5,149.5C 377.596,148.791 377.263,147.791 377.5,146.5C 381.5,146.5 385.5,146.5 389.5,146.5 Z"/></g>
<g><path style="opacity:1" fill="#caa37b" d="M 176.5,138.5 C 176.369,139.376 176.702,140.043 177.5,140.5C 179.071,139.691 180.738,139.357 182.5,139.5C 182.567,140.959 182.234,142.292 181.5,143.5C 179.488,142.986 177.488,142.82 175.5,143C 176.167,143.333 176.833,143.667 177.5,144C 176.475,146.071 175.642,148.238 175,150.5C 174.292,151.381 173.458,152.047 172.5,152.5C 172.368,149.43 172.701,146.43 173.5,143.5C 173.953,141.435 174.953,139.768 176.5,138.5 Z"/></g>
<g><path style="opacity:1" fill="#ef8541" d="M 207.5,124.5 C 204.875,126.8 202.541,129.466 200.5,132.5C 197.913,136.267 195.08,139.933 192,143.5C 191.517,144.448 191.351,145.448 191.5,146.5C 189.05,146.298 186.717,146.631 184.5,147.5C 180.284,150.268 178.117,154.268 178,159.5C 176.015,169.403 175.182,179.403 175.5,189.5C 174.833,188.167 174.167,186.833 173.5,185.5C 173.167,182.833 172.833,180.167 172.5,177.5C 172.334,172.489 172.501,167.489 173,162.5C 174.698,159.39 175.698,156.057 176,152.5C 177.856,149.444 179.689,146.444 181.5,143.5C 184.546,141.708 187.879,140.708 191.5,140.5C 194.443,132.89 199.777,127.557 207.5,124.5 Z"/></g>
<g><path style="opacity:1" fill="#474b54" d="M 370.5,134.5 C 370.334,143.17 368.001,151.17 363.5,158.5C 363.833,159.167 364.167,159.833 364.5,160.5C 362.955,161.452 361.288,161.785 359.5,161.5C 362.775,153.949 365.775,146.283 368.5,138.5C 368.989,137.005 369.655,135.671 370.5,134.5 Z"/></g>
<g><path style="opacity:1" fill="#55565a" d="M 386.5,152.5 C 400.994,151.339 415.661,151.172 430.5,152C 436.152,154.14 437.819,157.973 435.5,163.5C 430.905,164.655 426.238,165.488 421.5,166C 405.136,166.131 388.802,166.797 372.5,168C 371.663,169.011 371.33,170.178 371.5,171.5C 370.539,169.735 370.205,167.735 370.5,165.5C 387.171,165.35 403.838,165.017 420.5,164.5C 420.227,162.549 420.893,161.049 422.5,160C 425.817,159.502 429.15,159.335 432.5,159.5C 432.703,157.61 432.037,156.11 430.5,155C 415.807,154.086 401.14,153.253 386.5,152.5 Z"/></g>
<g><path style="opacity:1" fill="#f1a266" d="M 361.5,136.5 C 358.733,149.698 353.066,161.365 344.5,171.5C 349.967,159.569 355.634,147.903 361.5,136.5 Z"/></g>
<g><path style="opacity:1" fill="#ce4518" d="M 273.5,111.5 C 274.167,112.167 274.833,112.833 275.5,113.5C 275.893,115.284 276.559,116.95 277.5,118.5C 278.074,122.325 279.241,125.991 281,129.5C 281.499,134.489 281.666,139.489 281.5,144.5C 281.5,144.833 281.5,145.167 281.5,145.5C 277.898,151.435 273.565,156.768 268.5,161.5C 267.5,162.5 266.5,163.5 265.5,164.5C 261.9,166.43 258.9,169.097 256.5,172.5C 251.948,173.442 247.948,175.442 244.5,178.5C 244.343,177.127 244.51,175.793 245,174.5C 248.402,172.648 251.235,170.148 253.5,167C 257.018,166.15 259.351,163.983 260.5,160.5C 262.265,159.539 264.265,159.205 266.5,159.5C 266.33,158.178 266.663,157.011 267.5,156C 270.109,154.977 272.443,153.477 274.5,151.5C 279.109,144.494 280.609,136.827 279,128.5C 275.785,123.316 273.952,117.649 273.5,111.5 Z"/></g>
<g><path style="opacity:1" fill="#14181b" d="M 397.5,131.5 C 405.763,131.671 408.263,135.671 405,143.5C 400.098,145.624 394.931,146.624 389.5,146.5C 385.5,146.5 381.5,146.5 377.5,146.5C 377.263,147.791 377.596,148.791 378.5,149.5C 380.391,152.172 383.058,153.172 386.5,152.5C 401.14,153.253 415.807,154.086 430.5,155C 432.037,156.11 432.703,157.61 432.5,159.5C 429.15,159.335 425.817,159.502 422.5,160C 420.893,161.049 420.227,162.549 420.5,164.5C 403.838,165.017 387.171,165.35 370.5,165.5C 370.205,167.735 370.539,169.735 371.5,171.5C 372.609,172.29 373.942,172.79 375.5,173C 393.833,173.333 412.167,173.667 430.5,174C 431.78,178.569 431.113,182.902 428.5,187C 406.5,187.333 384.5,187.667 362.5,188C 361.707,189.085 361.04,190.252 360.5,191.5C 382.501,192.435 404.501,192.602 426.5,192C 427.886,195.873 427.72,199.706 426,203.5C 424.352,204.717 422.519,205.55 420.5,206C 395.829,207.105 371.163,208.272 346.5,209.5C 346.058,210.739 345.391,211.739 344.5,212.5C 344.131,207.942 343.131,204.275 341.5,201.5C 341.904,199.776 342.071,198.109 342,196.5C 340.266,197.249 338.433,197.749 336.5,198C 339.234,198.718 339.9,200.218 338.5,202.5C 337.833,202.167 337.167,201.833 336.5,201.5C 334.281,203.398 332.115,205.398 330,207.5C 329.235,207.43 328.735,207.097 328.5,206.5C 340.815,192.854 351.148,177.854 359.5,161.5C 361.288,161.785 362.955,161.452 364.5,160.5C 364.167,159.833 363.833,159.167 363.5,158.5C 368.001,151.17 370.334,143.17 370.5,134.5C 374.689,134.572 378.689,133.739 382.5,132C 387.489,131.501 392.489,131.334 397.5,131.5 Z"/></g>
<g><path style="opacity:1" fill="#fbb992" d="M 323.5,170.5 C 322.92,172.749 321.587,174.415 319.5,175.5C 320.08,173.251 321.413,171.585 323.5,170.5 Z"/></g>
<g><path style="opacity:1" fill="#f8ba99" d="M 341.5,175.5 C 341.392,177.783 340.559,179.783 339,181.5C 336.128,184.037 333.628,186.87 331.5,190C 330.255,190.791 328.922,191.291 327.5,191.5C 332.149,186.239 336.816,180.905 341.5,175.5 Z"/></g>
<g><path style="opacity:1" fill="#f7bc98" d="M 319.5,175.5 C 312.76,183.745 305.427,191.578 297.5,199C 295.266,200.75 292.932,202.25 290.5,203.5C 299.633,194.533 308.633,185.367 317.5,176C 318.094,175.536 318.761,175.369 319.5,175.5 Z"/></g>
<g><path style="opacity:1" fill="#161a1c" d="M 94.5,193.5 C 106.576,193.062 118.576,193.562 130.5,195C 122.873,205.955 112.373,209.788 99,206.5C 92.0942,206.479 85.4276,205.812 79,204.5C 78.0218,201.331 78.5218,198.497 80.5,196C 85.2389,194.949 89.9056,194.115 94.5,193.5 Z"/></g>
<g><path style="opacity:1" fill="#151618" d="M 307.5,64.5 C 313.45,66.8102 318.783,70.1436 323.5,74.5C 328.006,81.5329 329.506,89.1996 328,97.5C 327.116,104.037 325.449,110.37 323,116.5C 311.997,138.296 296.83,156.796 277.5,172C 254.409,191.73 228.743,207.397 200.5,219C 184.302,225.03 167.635,228.697 150.5,230C 138.24,225.98 134.073,217.813 138,205.5C 140.999,199.498 144.499,193.832 148.5,188.5C 129.872,186.958 111.205,186.125 92.5,186C 86.8644,182.797 86.1977,178.797 90.5,174C 109.498,172.97 128.498,171.97 147.5,171C 146.577,168.959 146.244,166.792 146.5,164.5C 117.846,165.598 89.1795,165.765 60.5,165C 54.6811,161.902 54.0144,157.902 58.5,153C 59.5,152.667 60.5,152.333 61.5,152C 91.8451,151.787 122.178,151.121 152.5,150C 153.605,147.88 153.605,145.713 152.5,143.5C 153.172,142.733 154.005,142.066 155,141.5C 156.395,142.815 157.395,142.481 158,140.5C 158.979,142.32 160.479,143.487 162.5,144C 162.532,154.254 162.532,164.754 162.5,175.5C 163.901,166.334 164.901,157.167 165.5,148C 165.167,147 164.833,146 164.5,145C 165.793,144.51 167.127,144.343 168.5,144.5C 168.324,147.448 168.324,150.114 168.5,152.5C 169.421,150.223 170.087,147.89 170.5,145.5C 170.446,158.303 170.612,171.303 171,184.5C 171.608,186.066 172.442,187.4 173.5,188.5C 174.167,190.5 174.833,192.5 175.5,194.5C 179.154,202.95 185.654,206.617 195,205.5C 200.362,205.781 205.529,204.947 210.5,203C 214.557,199.645 218.89,196.812 223.5,194.5C 225.655,194.628 227.655,194.128 229.5,193C 236.023,188.242 242.689,183.742 249.5,179.5C 259.692,175.974 267.025,169.308 271.5,159.5C 271.833,159.5 272.167,159.5 272.5,159.5C 274.924,159.808 277.257,159.474 279.5,158.5C 281.726,155.381 283.393,152.048 284.5,148.5C 285.5,148.5 286.5,148.5 287.5,148.5C 287.5,146.833 287.5,145.167 287.5,143.5C 288.978,143.762 290.311,143.429 291.5,142.5C 292.137,140.697 293.303,139.364 295,138.5C 295.494,136.866 295.66,135.199 295.5,133.5C 297.262,132.738 298.262,131.404 298.5,129.5C 303.097,122.775 307.263,115.775 311,108.5C 312.688,104.176 312.854,99.8422 311.5,95.5C 312.496,95.5858 313.329,95.2524 314,94.5C 314.667,92.1667 314.667,89.8333 314,87.5C 312.871,89.1412 311.371,90.1412 309.5,90.5C 309.217,89.7109 308.717,89.0442 308,88.5C 305.141,90.7516 302.475,90.7516 300,88.5C 297.748,90.9266 294.914,91.9266 291.5,91.5C 292.317,88.5214 293.151,85.5214 294,82.5C 294.519,83.5156 295.353,84.1822 296.5,84.5C 299.495,83.3364 302.495,82.1697 305.5,81C 308.167,80.3333 310.833,80.3333 313.5,81C 312.044,81.4226 311.544,82.2559 312,83.5C 315.744,80.9606 318.577,81.9606 320.5,86.5C 321.72,85.2889 322.887,85.2889 324,86.5C 324.692,85.9747 325.192,85.3081 325.5,84.5C 324.691,82.9291 324.357,81.2624 324.5,79.5C 322.201,78.8621 320.034,77.8621 318,76.5C 315.91,77.7908 314.576,77.1242 314,74.5C 313.667,75.5 313.333,76.5 313,77.5C 312.231,74.9009 312.398,72.4009 313.5,70C 310.353,69.3512 308.353,67.5179 307.5,64.5 Z"/></g>
<g><path style="opacity:1" fill="#a74c1d" d="M 173.5,185.5 C 174.167,186.833 174.833,188.167 175.5,189.5C 179.605,193.441 183.605,197.608 187.5,202C 189.81,202.497 192.143,202.663 194.5,202.5C 196.833,202.5 199.167,202.5 201.5,202.5C 196.684,203.65 191.684,203.816 186.5,203C 183.528,199.186 179.861,196.352 175.5,194.5C 174.833,192.5 174.167,190.5 173.5,188.5C 173.5,187.5 173.5,186.5 173.5,185.5 Z"/></g>
<g><path style="opacity:1" fill="#f2ebe4" d="M 256.5,172.5 C 253.973,174.605 251.64,176.939 249.5,179.5C 242.689,183.742 236.023,188.242 229.5,193C 227.655,194.128 225.655,194.628 223.5,194.5C 225.03,192.654 227.03,191.654 229.5,191.5C 229.393,189.097 230.393,187.264 232.5,186C 236.896,184.098 240.896,181.598 244.5,178.5C 247.948,175.442 251.948,173.442 256.5,172.5 Z"/></g>
<g><path style="opacity:1" fill="#6c4f30" d="M 173.5,143.5 C 172.701,146.43 172.368,149.43 172.5,152.5C 171.167,160.833 171.167,169.167 172.5,177.5C 172.833,180.167 173.167,182.833 173.5,185.5C 173.5,186.5 173.5,187.5 173.5,188.5C 172.442,187.4 171.608,186.066 171,184.5C 170.612,171.303 170.446,158.303 170.5,145.5C 171.29,144.599 172.29,143.932 173.5,143.5 Z"/></g>
<g><path style="opacity:1" fill="#321815" d="M 271.5,159.5 C 267.025,169.308 259.692,175.974 249.5,179.5C 251.64,176.939 253.973,174.605 256.5,172.5C 260.746,171.255 263.746,168.588 265.5,164.5C 266.5,163.5 267.5,162.5 268.5,161.5C 269.5,160.833 270.5,160.167 271.5,159.5 Z"/></g>
<g><path style="opacity:1" fill="#e5d0be" d="M 265.5,164.5 C 263.746,168.588 260.746,171.255 256.5,172.5C 258.9,169.097 261.9,166.43 265.5,164.5 Z"/></g>
<g><path style="opacity:1" fill="#8f381c" d="M 281.5,145.5 C 280.066,151.25 277.066,155.916 272.5,159.5C 272.167,159.5 271.833,159.5 271.5,159.5C 270.5,160.167 269.5,160.833 268.5,161.5C 273.565,156.768 277.898,151.435 281.5,145.5 Z"/></g>
<g><path style="opacity:1" fill="#db9f6b" d="M 181.5,143.5 C 179.689,146.444 177.856,149.444 176,152.5C 175.698,156.057 174.698,159.39 173,162.5C 172.501,167.489 172.334,172.489 172.5,177.5C 171.167,169.167 171.167,160.833 172.5,152.5C 173.458,152.047 174.292,151.381 175,150.5C 175.642,148.238 176.475,146.071 177.5,144C 176.833,143.667 176.167,143.333 175.5,143C 177.488,142.82 179.488,142.986 181.5,143.5 Z"/></g>
<g><path style="opacity:1" fill="#f26822" d="M 184.5,147.5 C 183.572,151.362 182.072,155.029 180,158.5C 178.836,166.124 178.003,173.791 177.5,181.5C 177.295,184.795 178.128,187.795 180,190.5C 181.699,191.406 183.533,191.739 185.5,191.5C 185.062,195.908 187.062,197.575 191.5,196.5C 191.028,199.358 192.028,201.358 194.5,202.5C 192.143,202.663 189.81,202.497 187.5,202C 183.605,197.608 179.605,193.441 175.5,189.5C 175.182,179.403 176.015,169.403 178,159.5C 178.117,154.268 180.284,150.268 184.5,147.5 Z"/></g>
<g><path style="opacity:1" fill="#f4b18c" d="M 327.5,191.5 C 325.81,195.518 322.81,198.184 318.5,199.5C 320.279,198.33 321.279,196.664 321.5,194.5C 323.947,194.385 325.947,193.385 327.5,191.5 Z"/></g>
<g><path style="opacity:1" fill="#522614" d="M 175.5,194.5 C 179.861,196.352 183.528,199.186 186.5,203C 191.684,203.816 196.684,203.65 201.5,202.5C 207.578,201.702 212.912,199.369 217.5,195.5C 219.435,194.85 221.435,194.517 223.5,194.5C 218.89,196.812 214.557,199.645 210.5,203C 205.529,204.947 200.362,205.781 195,205.5C 185.654,206.617 179.154,202.95 175.5,194.5 Z"/></g>
<g><path style="opacity:1" fill="#ac5327" d="M 217.5,195.5 C 212.912,199.369 207.578,201.702 201.5,202.5C 206.437,199.404 211.77,197.071 217.5,195.5 Z"/></g>
<g><path style="opacity:1" fill="#f25a0e" d="M 363.5,95.5 C 363.966,101.491 364.299,107.491 364.5,113.5C 363.965,120.183 363.298,126.85 362.5,133.5C 362.737,134.791 362.404,135.791 361.5,136.5C 355.634,147.903 349.967,159.569 344.5,171.5C 343.974,173.23 342.974,174.564 341.5,175.5C 336.816,180.905 332.149,186.239 327.5,191.5C 325.947,193.385 323.947,194.385 321.5,194.5C 321.279,196.664 320.279,198.33 318.5,199.5C 312.785,205.881 306.785,211.881 300.5,217.5C 297.482,217.8 295.482,219.467 294.5,222.5C 291.57,223.453 289.237,225.12 287.5,227.5C 287.532,229.619 286.532,230.952 284.5,231.5C 281.821,232.226 279.154,233.059 276.5,234C 275.663,235.011 275.33,236.178 275.5,237.5C 271.825,237.5 269.159,239.167 267.5,242.5C 258.815,246.004 250.481,250.17 242.5,255C 241.695,256.113 241.028,257.279 240.5,258.5C 239.005,258.989 237.671,259.655 236.5,260.5C 231.707,261.733 227.374,263.733 223.5,266.5C 218.365,269.734 213.032,272.401 207.5,274.5C 198.938,277.141 190.272,279.474 181.5,281.5C 175.187,281.914 169.187,283.248 163.5,285.5C 151.527,286.609 139.527,287.275 127.5,287.5C 120.678,287.369 114.345,285.535 108.5,282C 105,279.666 102,276.832 99.5,273.5C 98.9423,269.989 98.2757,266.489 97.5,263C 97.6052,261.408 97.9386,259.908 98.5,258.5C 99.2506,257.427 100.251,257.26 101.5,258C 106.937,264.966 113.937,269.133 122.5,270.5C 123.952,271.302 125.618,271.802 127.5,272C 141.573,272.994 155.24,271.494 168.5,267.5C 177.605,265.11 186.605,262.443 195.5,259.5C 202.987,257.455 209.987,254.455 216.5,250.5C 218.713,249.227 221.046,248.227 223.5,247.5C 229.586,245.302 235.586,242.802 241.5,240C 243.373,238.296 245.04,236.463 246.5,234.5C 253.618,228.767 261.284,223.767 269.5,219.5C 276.581,218.084 281.581,214.084 284.5,207.5C 286.518,206.141 288.518,204.807 290.5,203.5C 292.932,202.25 295.266,200.75 297.5,199C 305.427,191.578 312.76,183.745 319.5,175.5C 321.587,174.415 322.92,172.749 323.5,170.5C 334.505,155.173 344.005,138.84 352,121.5C 353.249,109.557 353.915,97.5566 354,85.5C 358.068,88.0658 361.235,91.3991 363.5,95.5 Z"/></g>
<g><path style="opacity:1" fill="#d16c35" d="M 284.5,207.5 C 281.581,214.084 276.581,218.084 269.5,219.5C 273.898,214.771 278.898,210.771 284.5,207.5 Z"/></g>
<g><path style="opacity:1" fill="#585857" d="M 122.5,229.5 C 120.059,227.925 118.893,225.592 119,222.5C 118.623,221.058 117.79,220.058 116.5,219.5C 116.833,214.957 118.833,213.79 122.5,216C 121.324,220.453 121.324,224.953 122.5,229.5 Z"/></g>
<g><path style="opacity:1" fill="#f7b189" d="M 300.5,217.5 C 298.17,219.617 296.17,222.117 294.5,225C 292.257,226.136 289.924,226.97 287.5,227.5C 289.237,225.12 291.57,223.453 294.5,222.5C 295.482,219.467 297.482,217.8 300.5,217.5 Z"/></g>
<g><path style="opacity:1" fill="#151819" d="M 124.5,256.5 C 130.504,256.18 136.337,255.846 142,255.5C 142.667,256.167 143.333,256.833 144,257.5C 148.647,256.595 153.314,255.595 158,254.5C 161.439,252.191 164.939,250.191 168.5,248.5C 170.926,248.404 173.093,249.07 175,250.5C 175.98,249.019 177.147,247.685 178.5,246.5C 177.102,244.87 176.102,243.036 175.5,241C 160.837,241.637 146.17,241.47 131.5,240.5C 130.873,239.583 130.539,238.583 130.5,237.5C 150.615,241.211 170.281,239.377 189.5,232C 233.96,215.363 272.46,189.863 305,155.5C 318.927,139.656 329.261,121.656 336,101.5C 337.339,94.5736 337.839,87.5736 337.5,80.5C 340.388,80.2196 341.888,81.5529 342,84.5C 342.442,82.3215 343.442,81.6548 345,82.5C 348.268,107.093 342.602,129.427 328,149.5C 304.245,181.951 274.745,207.784 239.5,227C 211.022,243.903 180.355,254.57 147.5,259C 141.5,259.667 135.5,259.667 129.5,259C 127.509,258.626 125.842,257.793 124.5,256.5 Z"/></g>
<g><path style="opacity:1" fill="#090d0f" d="M 116.5,219.5 C 117.79,220.058 118.623,221.058 119,222.5C 118.893,225.592 120.059,227.925 122.5,229.5C 124.806,232.473 127.473,235.14 130.5,237.5C 130.539,238.583 130.873,239.583 131.5,240.5C 146.17,241.47 160.837,241.637 175.5,241C 176.102,243.036 177.102,244.87 178.5,246.5C 177.147,247.685 175.98,249.019 175,250.5C 173.093,249.07 170.926,248.404 168.5,248.5C 164.939,250.191 161.439,252.191 158,254.5C 153.314,255.595 148.647,256.595 144,257.5C 143.333,256.833 142.667,256.167 142,255.5C 136.337,255.846 130.504,256.18 124.5,256.5C 112.219,250.203 107.719,240.203 111,226.5C 111.935,223.405 113.769,221.071 116.5,219.5 Z"/></g>
<g><path style="opacity:1" fill="#f7c2a5" d="M 284.5,231.5 C 279.646,236.341 273.98,240.007 267.5,242.5C 269.159,239.167 271.825,237.5 275.5,237.5C 275.33,236.178 275.663,235.011 276.5,234C 279.154,233.059 281.821,232.226 284.5,231.5 Z"/></g>
<g><path style="opacity:1" fill="#121519" d="M 344.5,212.5 C 344.918,213.222 345.584,213.722 346.5,214C 353.683,214.656 360.85,214.489 368,213.5C 377.224,214.051 386.391,215.051 395.5,216.5C 396.799,219.699 396.799,222.865 395.5,226C 372.498,225.88 349.498,226.713 326.5,228.5C 326.5,230.167 326.5,231.833 326.5,233.5C 346.169,233.333 365.836,233.5 385.5,234C 390.509,237.436 390.843,241.436 386.5,246C 359.113,247.391 331.779,248.558 304.5,249.5C 303.883,249.389 303.383,249.056 303,248.5C 302.257,250.441 302.424,252.274 303.5,254C 302.167,254.667 300.833,254.667 299.5,254C 297.887,250.88 295.553,248.713 292.5,247.5C 292.271,245.567 291.438,243.9 290,242.5C 288.989,241.663 287.822,241.33 286.5,241.5C 293.076,235.866 300.076,230.7 307.5,226C 314.069,218.927 321.069,212.427 328.5,206.5C 328.735,207.097 329.235,207.43 330,207.5C 332.115,205.398 334.281,203.398 336.5,201.5C 337.167,201.833 337.833,202.167 338.5,202.5C 339.9,200.218 339.234,198.718 336.5,198C 338.433,197.749 340.266,197.249 342,196.5C 342.071,198.109 341.904,199.776 341.5,201.5C 343.131,204.275 344.131,207.942 344.5,212.5 Z"/></g>
<g><path style="opacity:1" fill="#e69161" d="M 246.5,234.5 C 245.04,236.463 243.373,238.296 241.5,240C 235.586,242.802 229.586,245.302 223.5,247.5C 230.412,241.941 238.079,237.608 246.5,234.5 Z"/></g>
<g><path style="opacity:1" fill="#101316" d="M 286.5,241.5 C 287.822,241.33 288.989,241.663 290,242.5C 291.438,243.9 292.271,245.567 292.5,247.5C 295.553,248.713 297.887,250.88 299.5,254C 300.833,254.667 302.167,254.667 303.5,254C 302.424,252.274 302.257,250.441 303,248.5C 303.383,249.056 303.883,249.389 304.5,249.5C 304.433,250.959 304.766,252.292 305.5,253.5C 305.611,254.117 305.944,254.617 306.5,255C 320.496,255.5 334.496,255.667 348.5,255.5C 348.5,258.833 348.5,262.167 348.5,265.5C 334.599,266.998 320.599,267.831 306.5,268C 298.893,272.609 291.559,277.609 284.5,283C 280.05,285.261 275.383,286.928 270.5,288C 251.108,288.953 231.774,288.287 212.5,286C 211.663,284.989 211.33,283.822 211.5,282.5C 237.727,270.908 262.727,257.241 286.5,241.5 Z"/></g>
<g><path style="opacity:1" fill="#f8c1a6" d="M 267.5,242.5 C 259.374,249.073 250.374,254.406 240.5,258.5C 241.028,257.279 241.695,256.113 242.5,255C 250.481,250.17 258.815,246.004 267.5,242.5 Z"/></g>
<g><path style="opacity:1" fill="#9a9a9d" d="M 305.5,253.5 C 319.504,253.333 333.504,253.5 347.5,254C 352.115,255.124 353.615,257.957 352,262.5C 350.961,263.71 349.794,264.71 348.5,265.5C 348.5,262.167 348.5,258.833 348.5,255.5C 334.496,255.667 320.496,255.5 306.5,255C 305.944,254.617 305.611,254.117 305.5,253.5 Z"/></g>
<g><path style="opacity:1" fill="#f7c5a7" d="M 216.5,250.5 C 209.987,254.455 202.987,257.455 195.5,259.5C 195.577,258.25 196.244,257.417 197.5,257C 203.807,254.509 210.14,252.343 216.5,250.5 Z"/></g>
<g><path style="opacity:1" fill="#f9f8f6" d="M 364.5,130.5 C 364.217,137.731 365.05,138.064 367,131.5C 367.186,134.036 367.686,136.369 368.5,138.5C 365.775,146.283 362.775,153.949 359.5,161.5C 351.148,177.854 340.815,192.854 328.5,206.5C 321.069,212.427 314.069,218.927 307.5,226C 300.076,230.7 293.076,235.866 286.5,241.5C 262.727,257.241 237.727,270.908 211.5,282.5C 211.64,280.876 210.973,279.71 209.5,279C 210.167,278.667 210.833,278.333 211.5,278C 209.681,277.26 208.348,276.093 207.5,274.5C 213.032,272.401 218.365,269.734 223.5,266.5C 226.813,265.955 230.146,265.455 233.5,265C 233.167,264.667 232.833,264.333 232.5,264C 234.093,263.051 235.426,261.885 236.5,260.5C 237.671,259.655 239.005,258.989 240.5,258.5C 250.374,254.406 259.374,249.073 267.5,242.5C 273.98,240.007 279.646,236.341 284.5,231.5C 286.532,230.952 287.532,229.619 287.5,227.5C 289.924,226.97 292.257,226.136 294.5,225C 296.17,222.117 298.17,219.617 300.5,217.5C 306.785,211.881 312.785,205.881 318.5,199.5C 322.81,198.184 325.81,195.518 327.5,191.5C 328.922,191.291 330.255,190.791 331.5,190C 333.628,186.87 336.128,184.037 339,181.5C 340.559,179.783 341.392,177.783 341.5,175.5C 342.974,174.564 343.974,173.23 344.5,171.5C 353.066,161.365 358.733,149.698 361.5,136.5C 362.404,135.791 362.737,134.791 362.5,133.5C 363.167,132.5 363.833,131.5 364.5,130.5 Z"/></g>
<g><path style="opacity:1" fill="#ffdbca" d="M 236.5,260.5 C 235.426,261.885 234.093,263.051 232.5,264C 232.833,264.333 233.167,264.667 233.5,265C 230.146,265.455 226.813,265.955 223.5,266.5C 227.374,263.733 231.707,261.733 236.5,260.5 Z"/></g>
<g><path style="opacity:1" fill="#fbc6a4" d="M 98.5,258.5 C 97.9386,259.908 97.6052,261.408 97.5,263C 98.2757,266.489 98.9423,269.989 99.5,273.5C 97.1054,270.88 96.1054,267.713 96.5,264C 96.5465,261.705 97.2132,259.871 98.5,258.5 Z"/></g>
<g><path style="opacity:1" fill="#f2bea1" d="M 168.5,267.5 C 155.24,271.494 141.573,272.994 127.5,272C 125.618,271.802 123.952,271.302 122.5,270.5C 132.839,270.666 143.172,270.5 153.5,270C 158.319,268.553 163.319,267.72 168.5,267.5 Z"/></g>
<g><path style="opacity:1" fill="#ef9362" d="M 181.5,281.5 C 175.751,283.452 169.751,284.786 163.5,285.5C 169.187,283.248 175.187,281.914 181.5,281.5 Z"/></g>
<g><path style="opacity:1" fill="#e08b5d" d="M 163.5,285.5 C 151.601,288.352 139.601,289.019 127.5,287.5C 139.527,287.275 151.527,286.609 163.5,285.5 Z"/></g>
<g><path style="opacity:1" fill="#0d0d0d" d="M 90.5,333.5 C 101.103,332.436 110.27,335.436 118,342.5C 124.231,353.17 123.398,363.337 115.5,373C 102.682,381.115 89.6816,381.448 76.5,374C 65.2734,361.377 65.9401,349.377 78.5,338C 82.3011,335.584 86.3011,334.084 90.5,333.5 Z"/></g>
<g><path style="opacity:1" fill="#0b0b0b" d="M 67.5,334.5 C 67.5,335.833 67.5,337.167 67.5,338.5C 61.642,338.178 55.9753,338.511 50.5,339.5C 50.5,352.5 50.5,365.5 50.5,378.5C 47.8333,378.5 45.1667,378.5 42.5,378.5C 42.5,365.5 42.5,352.5 42.5,339.5C 36.5,339.5 30.5,339.5 24.5,339.5C 24.5,337.833 24.5,336.167 24.5,334.5C 38.8333,334.5 53.1667,334.5 67.5,334.5 Z"/></g>
<g><path style="opacity:1" fill="#070707" d="M 132.5,334.5 C 141.552,334.193 150.552,334.693 159.5,336C 167.597,339.024 170.097,344.524 167,352.5C 164.252,356.567 160.419,359.067 155.5,360C 150.177,360.499 144.844,360.666 139.5,360.5C 139.5,366.5 139.5,372.5 139.5,378.5C 137.167,378.5 134.833,378.5 132.5,378.5C 132.5,363.833 132.5,349.167 132.5,334.5 Z"/></g>
<g><path style="opacity:1" fill="#f15b12" d="M 342.5,359.5 C 341.934,361.078 340.934,362.412 339.5,363.5C 338.735,362.388 337.735,361.721 336.5,361.5C 335.508,361.672 334.842,361.338 334.5,360.5C 334.389,359.883 334.056,359.383 333.5,359C 328.845,358.501 324.179,358.334 319.5,358.5C 319.5,364.833 319.5,371.167 319.5,377.5C 317.5,377.5 315.5,377.5 313.5,377.5C 313.5,363.5 313.5,349.5 313.5,335.5C 323.647,333.76 333.647,334.26 343.5,337C 351.924,344.975 350.924,351.808 340.5,357.5C 340.855,358.522 341.522,359.189 342.5,359.5 Z"/></g>
<g><path style="opacity:1" fill="#ea9465" d="M 367.5,335.5 C 365.167,335.5 362.833,335.5 360.5,335.5C 360.5,349.5 360.5,363.5 360.5,377.5C 371.167,377.5 381.833,377.5 392.5,377.5C 381.679,378.495 370.679,378.828 359.5,378.5C 359.5,363.833 359.5,349.167 359.5,334.5C 362.385,334.194 365.052,334.527 367.5,335.5 Z"/></g>
<g><path style="opacity:1" fill="#f25c12" d="M 367.5,335.5 C 367.5,348.167 367.5,360.833 367.5,373.5C 375.833,373.5 384.167,373.5 392.5,373.5C 392.5,374.833 392.5,376.167 392.5,377.5C 381.833,377.5 371.167,377.5 360.5,377.5C 360.5,363.5 360.5,349.5 360.5,335.5C 362.833,335.5 365.167,335.5 367.5,335.5 Z"/></g>
<g><path style="opacity:1" fill="#d39573" d="M 181.5,335.5 C 178.612,334.99 176.279,335.656 174.5,337.5C 173.596,336.791 173.263,335.791 173.5,334.5C 176.385,334.194 179.052,334.527 181.5,335.5 Z"/></g>
<g><path style="opacity:1" fill="#484848" d="M 67.5,334.5 C 68.4511,335.919 68.7845,337.585 68.5,339.5C 62.5,339.5 56.5,339.5 50.5,339.5C 55.9753,338.511 61.642,338.178 67.5,338.5C 67.5,337.167 67.5,335.833 67.5,334.5 Z"/></g>
<g><path style="opacity:1" fill="#fafafa" d="M 88.5,338.5 C 103.546,335.667 112.212,341.667 114.5,356.5C 112.162,371.473 103.496,377.306 88.5,374C 77.41,368.651 73.91,360.151 78,348.5C 80.7379,344.26 84.2379,340.926 88.5,338.5 Z"/></g>
<g><path style="opacity:1" fill="#db713b" d="M 244.5,336.5 C 242.735,335.539 240.735,335.205 238.5,335.5C 238.759,337.989 237.759,339.656 235.5,340.5C 236.399,334.586 239.733,332.919 245.5,335.5C 245.376,336.107 245.043,336.44 244.5,336.5 Z"/></g>
<g><path style="opacity:1" fill="#f4f4f4" d="M 139.5,338.5 C 145.732,337.939 151.732,338.772 157.5,341C 163.133,346.487 162.466,351.154 155.5,355C 150.264,356.339 144.93,356.839 139.5,356.5C 139.5,350.5 139.5,344.5 139.5,338.5 Z"/></g>
<g><path style="opacity:1" fill="#ef5f1a" d="M 282.5,378.5 C 278.486,378.666 274.486,378.499 270.5,378C 273.3,376.768 276.3,376.101 279.5,376C 280.056,375.617 280.389,375.117 280.5,374.5C 291.156,370.528 295.656,362.862 294,351.5C 288.191,339.108 278.691,335.275 265.5,340C 255.857,347.56 254.024,356.727 260,367.5C 262.483,370.823 265.649,373.157 269.5,374.5C 269.719,375.675 269.386,376.675 268.5,377.5C 265.601,376.358 262.601,375.692 259.5,375.5C 247.895,367.553 245.395,357.22 252,344.5C 260.02,335.274 270.187,331.774 282.5,334C 298.047,337.249 304.547,346.749 302,362.5C 298.658,371.675 292.158,377.009 282.5,378.5 Z"/></g>
<g><path style="opacity:1" fill="#fdfcf9" d="M 280.5,374.5 C 276.833,374.5 273.167,374.5 269.5,374.5C 265.649,373.157 262.483,370.823 260,367.5C 254.024,356.727 255.857,347.56 265.5,340C 278.691,335.275 288.191,339.108 294,351.5C 295.656,362.862 291.156,370.528 280.5,374.5 Z"/></g>
<g><path style="opacity:1" fill="#fcfbf8" d="M 333.5,339.5 C 341.576,341.047 343.576,345.38 339.5,352.5C 336.888,353.371 334.221,354.037 331.5,354.5C 328.167,354.5 324.833,354.5 321.5,354.5C 321.334,349.821 321.501,345.155 322,340.5C 325.73,339.54 329.563,339.207 333.5,339.5 Z"/></g>
<g><path style="opacity:1" fill="#f05e18" d="M 403.5,334.5 C 413.537,334.287 423.537,334.787 433.5,336C 449.986,342.457 453.82,353.29 445,368.5C 439.26,373.953 432.426,377.119 424.5,378C 416.841,378.5 409.174,378.666 401.5,378.5C 400.876,363.59 401.542,348.924 403.5,334.5 Z"/></g>
<g><path style="opacity:1" fill="#fdfcf9" d="M 428.5,372.5 C 421.891,373.423 415.224,373.756 408.5,373.5C 408.5,362.167 408.5,350.833 408.5,339.5C 415.175,339.334 421.842,339.5 428.5,340C 442.122,344.925 445.288,353.758 438,366.5C 435.195,369.151 432.029,371.151 428.5,372.5 Z"/></g>
<g><path style="opacity:1" fill="#fcd1ad" d="M 333.5,339.5 C 329.563,339.207 325.73,339.54 322,340.5C 321.501,345.155 321.334,349.821 321.5,354.5C 324.833,354.5 328.167,354.5 331.5,354.5C 328.038,355.482 324.371,355.815 320.5,355.5C 320.5,350.167 320.5,344.833 320.5,339.5C 324.833,338.167 329.167,338.167 333.5,339.5 Z"/></g>
<g><path style="opacity:1" fill="#d6652b" d="M 320.5,339.5 C 320.5,344.833 320.5,350.167 320.5,355.5C 324.371,355.815 328.038,355.482 331.5,354.5C 334.221,354.037 336.888,353.371 339.5,352.5C 337.879,354.117 335.879,355.284 333.5,356C 328.845,356.499 324.179,356.666 319.5,356.5C 319.178,350.642 319.511,344.975 320.5,339.5 Z"/></g>
<g><path style="opacity:1" fill="#e56b2d" d="M 342.5,359.5 C 343.458,359.953 344.292,360.619 345,361.5C 347.276,366.838 349.443,372.172 351.5,377.5C 348.833,378.833 346.167,378.833 343.5,377.5C 343.137,376.817 342.804,376.15 342.5,375.5C 344.435,376.15 346.435,376.483 348.5,376.5C 348.041,373.123 347.374,369.789 346.5,366.5C 345.325,366.719 344.325,366.386 343.5,365.5C 344.847,361.89 344.18,361.557 341.5,364.5C 340.548,366.045 340.215,367.712 340.5,369.5C 339.199,366.899 337.866,364.232 336.5,361.5C 337.735,361.721 338.735,362.388 339.5,363.5C 340.934,362.412 341.934,361.078 342.5,359.5 Z"/></g>
<g><path style="opacity:1" fill="#d98153" d="M 313.5,335.5 C 313.5,349.5 313.5,363.5 313.5,377.5C 315.5,377.5 317.5,377.5 319.5,377.5C 319.5,371.167 319.5,364.833 319.5,358.5C 324.179,358.334 328.845,358.501 333.5,359C 334.056,359.383 334.389,359.883 334.5,360.5C 329.897,359.617 325.23,359.283 320.5,359.5C 320.5,365.833 320.5,372.167 320.5,378.5C 317.833,378.5 315.167,378.5 312.5,378.5C 312.171,363.99 312.504,349.657 313.5,335.5 Z"/></g>
<g><path style="opacity:1" fill="#f3580d" d="M 342.5,375.5 C 342.029,373.421 341.363,371.421 340.5,369.5C 340.215,367.712 340.548,366.045 341.5,364.5C 344.18,361.557 344.847,361.89 343.5,365.5C 344.325,366.386 345.325,366.719 346.5,366.5C 347.374,369.789 348.041,373.123 348.5,376.5C 346.435,376.483 344.435,376.15 342.5,375.5 Z"/></g>
<g><path style="opacity:1" fill="#eb8047" d="M 428.5,372.5 C 428.389,373.117 428.056,373.617 427.5,374C 420.986,374.82 414.653,374.653 408.5,373.5C 415.224,373.756 421.891,373.423 428.5,372.5 Z"/></g>
<g><path style="opacity:1" fill="#ee5e18" d="M 235.5,340.5 C 237.759,339.656 238.759,337.989 238.5,335.5C 240.735,335.205 242.735,335.539 244.5,336.5C 239.366,350.116 234.199,363.782 229,377.5C 226.281,378.444 223.448,378.777 220.5,378.5C 217.561,366.516 213.728,354.85 209,343.5C 204.756,354.723 200.59,366.057 196.5,377.5C 193.833,378.833 191.167,378.833 188.5,377.5C 183.522,364.242 178.855,350.909 174.5,337.5C 176.279,335.656 178.612,334.99 181.5,335.5C 185.617,347.019 189.451,358.686 193,370.5C 197.068,358.795 201.235,347.129 205.5,335.5C 208.372,334.217 211.205,334.217 214,335.5C 217.994,347.132 221.661,358.799 225,370.5C 228.202,360.422 231.702,350.422 235.5,340.5 Z"/></g>
<g><path style="opacity:1" fill="#e46e31" d="M 269.5,374.5 C 273.167,374.5 276.833,374.5 280.5,374.5C 280.389,375.117 280.056,375.617 279.5,376C 276.3,376.101 273.3,376.768 270.5,378C 274.486,378.499 278.486,378.666 282.5,378.5C 277.684,379.65 272.684,379.816 267.5,379C 264.401,378.613 261.734,377.446 259.5,375.5C 262.601,375.692 265.601,376.358 268.5,377.5C 269.386,376.675 269.719,375.675 269.5,374.5 Z"/></g>
<g><path style="opacity:1" fill="#848484" d="M 254.5,395.5 C 257.024,394.2 259.691,394.2 262.5,395.5C 262.376,396.107 262.043,396.44 261.5,396.5C 259.393,395.532 257.059,395.198 254.5,395.5 Z"/></g>
<g><path style="opacity:1" fill="#0a0a0a" d="M 164.5,429.5 C 164.5,430.833 164.5,432.167 164.5,433.5C 162.167,433.5 159.833,433.5 157.5,433.5C 157.234,423.78 156.401,414.113 155,404.5C 150.772,413.955 146.272,423.289 141.5,432.5C 139.305,433.769 137.139,433.769 135,432.5C 130.659,422.799 126.325,413.132 122,403.5C 121.499,412.845 120.833,422.179 120,431.5C 117.879,433.457 115.379,433.957 112.5,433C 113.68,420.528 115.013,408.028 116.5,395.5C 119.777,395.216 122.943,395.549 126,396.5C 130.35,405.864 134.683,415.197 139,424.5C 142.786,414.927 147.12,405.593 152,396.5C 155.394,395.544 158.894,395.211 162.5,395.5C 163.056,406.84 163.723,418.174 164.5,429.5 Z"/></g>
<g><path style="opacity:1" fill="#0a0a0a" d="M 185.5,395.5 C 191.176,395.334 196.843,395.501 202.5,396C 216.521,401.039 220.688,410.539 215,424.5C 206.939,432.978 197.106,435.811 185.5,433C 173.601,429.043 169.101,420.876 172,408.5C 175.049,402.617 179.549,398.284 185.5,395.5 Z"/></g>
<g><path style="opacity:1" fill="#0a0a0a" d="M 254.5,395.5 C 257.059,395.198 259.393,395.532 261.5,396.5C 255.847,408.474 250.181,420.474 244.5,432.5C 241.5,433.833 238.5,433.833 235.5,432.5C 230.26,420.275 224.926,408.108 219.5,396C 222.429,395.223 225.263,395.39 228,396.5C 232.391,406.341 236.391,416.341 240,426.5C 244.751,416.056 249.584,405.723 254.5,395.5 Z"/></g>
<g><path style="opacity:1" fill="#010101" d="M 294.5,399.5 C 287.5,399.5 280.5,399.5 273.5,399.5C 273.183,403.702 273.517,407.702 274.5,411.5C 280.645,412.49 286.978,412.823 293.5,412.5C 293.5,413.833 293.5,415.167 293.5,416.5C 286.978,416.177 280.645,416.51 274.5,417.5C 273.517,421.298 273.183,425.298 273.5,429.5C 280.833,429.5 288.167,429.5 295.5,429.5C 295.5,430.833 295.5,432.167 295.5,433.5C 285.833,433.5 276.167,433.5 266.5,433.5C 266.5,420.833 266.5,408.167 266.5,395.5C 275.833,395.5 285.167,395.5 294.5,395.5C 294.5,396.833 294.5,398.167 294.5,399.5 Z"/></g>
<g><path style="opacity:1" fill="#070707" d="M 336.5,432.5 C 334.393,433.468 332.059,433.802 329.5,433.5C 328.005,429.536 326.505,425.536 325,421.5C 320.865,417.817 316.198,416.817 311,418.5C 310.501,423.489 310.334,428.489 310.5,433.5C 308.167,433.5 305.833,433.5 303.5,433.5C 303.5,420.833 303.5,408.167 303.5,395.5C 310.841,395.334 318.174,395.5 325.5,396C 335.204,398.241 337.704,403.741 333,412.5C 331.082,413.542 329.249,414.708 327.5,416C 329.286,416.785 330.786,417.951 332,419.5C 333.405,423.883 334.905,428.217 336.5,432.5 Z"/></g>
<g><path style="opacity:1" fill="#0f0f0f" d="M 350.5,395.5 C 356.509,395.334 362.509,395.501 368.5,396C 369.308,396.308 369.975,396.808 370.5,397.5C 370.014,399.497 368.847,400.831 367,401.5C 362.208,400.414 357.375,400.247 352.5,401C 349.05,403.158 348.717,405.658 351.5,408.5C 358.422,410.638 364.922,413.638 371,417.5C 373.799,424.071 371.966,428.904 365.5,432C 358.582,433.551 351.582,433.884 344.5,433C 339.897,431.934 339.564,429.767 343.5,426.5C 349.32,428.522 355.32,429.022 361.5,428C 364.978,425.294 365.311,422.294 362.5,419C 358.608,417.36 354.608,416.027 350.5,415C 343.661,412.843 341.161,408.343 343,401.5C 345.114,398.879 347.614,396.879 350.5,395.5 Z"/></g>
<g><path style="opacity:1" fill="#7d7d7d" d="M 294.5,399.5 C 288.021,400.491 281.354,400.824 274.5,400.5C 274.5,404.167 274.5,407.833 274.5,411.5C 273.517,407.702 273.183,403.702 273.5,399.5C 280.5,399.5 287.5,399.5 294.5,399.5 Z"/></g>
<g><path style="opacity:1" fill="#f9f9f9" d="M 191.5,399.5 C 206.951,400.109 212.451,407.776 208,422.5C 198.945,431.818 189.945,431.818 181,422.5C 176.391,411.054 179.891,403.388 191.5,399.5 Z"/></g>
<g><path style="opacity:1" fill="#f8f8f8" d="M 319.5,412.5 C 316.833,412.5 314.167,412.5 311.5,412.5C 311.5,408.5 311.5,404.5 311.5,400.5C 314.64,399.359 317.973,399.192 321.5,400C 326.71,401.211 328.544,404.377 327,409.5C 325.005,411.747 322.505,412.747 319.5,412.5 Z"/></g>
<g><path style="opacity:1" fill="#a4a4a4" d="M 311.5,400.5 C 311.5,404.5 311.5,408.5 311.5,412.5C 314.167,412.5 316.833,412.5 319.5,412.5C 316.713,413.477 313.713,413.81 310.5,413.5C 310.182,408.968 310.515,404.634 311.5,400.5 Z"/></g>
<g><path style="opacity:1" fill="#160204" d="M 22.5,412.5 C 46.1667,412.5 69.8333,412.5 93.5,412.5C 93.5,415.167 93.5,417.833 93.5,420.5C 69.8333,420.5 46.1667,420.5 22.5,420.5C 22.5,417.833 22.5,415.167 22.5,412.5 Z"/></g>
<g><path style="opacity:1" fill="#070305" d="M 385.5,412.5 C 386.167,412.5 386.833,412.5 387.5,412.5C 409.994,413.497 432.661,413.831 455.5,413.5C 455.739,415.467 455.406,417.301 454.5,419C 431.996,419.168 409.663,419.668 387.5,420.5C 386.833,420.5 386.167,420.5 385.5,420.5C 385.5,417.833 385.5,415.167 385.5,412.5 Z"/></g>
<g><path style="opacity:1" fill="#330000" d="M 387.5,412.5 C 410.5,412.5 433.5,412.5 456.5,412.5C 456.5,415.167 456.5,417.833 456.5,420.5C 433.5,420.5 410.5,420.5 387.5,420.5C 409.663,419.668 431.996,419.168 454.5,419C 455.406,417.301 455.739,415.467 455.5,413.5C 432.661,413.831 409.994,413.497 387.5,412.5 Z"/></g>
<g><path style="opacity:1" fill="#b67b68" d="M 22.5,412.5 C 46.3275,411.502 70.3275,411.169 94.5,411.5C 94.5,414.833 94.5,418.167 94.5,421.5C 70.3275,421.831 46.3275,421.498 22.5,420.5C 46.1667,420.5 69.8333,420.5 93.5,420.5C 93.5,417.833 93.5,415.167 93.5,412.5C 69.8333,412.5 46.1667,412.5 22.5,412.5 Z"/></g>
<g><path style="opacity:1" fill="#b5775d" d="M 385.5,412.5 C 409.328,411.502 433.328,411.169 457.5,411.5C 457.5,414.833 457.5,418.167 457.5,421.5C 433.328,421.831 409.328,421.498 385.5,420.5C 386.167,420.5 386.833,420.5 387.5,420.5C 410.5,420.5 433.5,420.5 456.5,420.5C 456.5,417.833 456.5,415.167 456.5,412.5C 433.5,412.5 410.5,412.5 387.5,412.5C 386.833,412.5 386.167,412.5 385.5,412.5 Z"/></g>
<g><path style="opacity:1" fill="#7d7d7d" d="M 274.5,417.5 C 274.5,421.167 274.5,424.833 274.5,428.5C 281.687,428.175 288.687,428.509 295.5,429.5C 288.167,429.5 280.833,429.5 273.5,429.5C 273.183,425.298 273.517,421.298 274.5,417.5 Z"/></g>
<g><path style="opacity:1" fill="#8b8b8b" d="M 164.5,429.5 C 165.451,430.919 165.784,432.585 165.5,434.5C 162.615,434.806 159.948,434.473 157.5,433.5C 159.833,433.5 162.167,433.5 164.5,433.5C 164.5,432.167 164.5,430.833 164.5,429.5 Z"/></g>
<g><path style="opacity:1" fill="#7e7e7e" d="M 336.5,432.5 C 337.043,432.56 337.376,432.893 337.5,433.5C 334.691,434.8 332.024,434.8 329.5,433.5C 332.059,433.802 334.393,433.468 336.5,432.5 Z"/></g>
</svg>
