<?xml version="1.0" standalone="no"?>
<!DOCTYPE svg PUBLIC "-//W3C//DTD SVG 20010904//EN"
 "http://www.w3.org/TR/2001/REC-SVG-20010904/DTD/svg10.dtd">
<svg version="1.0" xmlns="http://www.w3.org/2000/svg"
 width="512.000000pt" height="512.000000pt" viewBox="0 0 512.000000 512.000000"
 preserveAspectRatio="xMidYMid meet">

<g transform="translate(0.000000,512.000000) scale(0.100000,-0.100000)"
fill="#000000" stroke="none">
<path d="M0 5095 l0 -25 2560 0 2560 0 0 25 0 25 -2560 0 -2560 0 0 -25z"/>
<path d="M3417 3813 c-14 -13 -7 -93 8 -99 11 -5 15 -22 15 -64 0 -31 3 -98 6
-147 l7 -90 54 -2 c30 0 59 -3 64 -7 5 -3 9 82 9 205 l0 211 -78 0 c-43 0 -82
-3 -85 -7z"/>
<path d="M3889 3818 c-1 -5 -2 -73 0 -90 0 -10 8 -18 16 -18 12 0 15 -13 15
-59 l0 -59 -43 16 c-56 20 -107 10 -153 -30 -42 -37 -52 -55 -63 -111 -9 -52
-1 -62 54 -62 22 0 50 -3 62 -7 20 -6 23 -3 29 30 19 111 91 111 118 -1 7 -28
8 -28 74 -25 l67 3 3 208 2 207 -90 0 c-49 0 -90 -1 -91 -2z"/>
<path d="M918 3708 c-57 -19 -58 -20 -58 -59 0 -32 -3 -39 -20 -39 -17 0 -20
-7 -20 -50 0 -47 2 -50 25 -50 14 0 25 -6 25 -12 0 -9 19 -13 60 -14 45 -1 60
2 60 12 0 9 12 14 34 14 30 0 34 4 40 31 12 62 9 69 -29 69 l-35 0 0 60 c0 68
1 68 -82 38z"/>
<path d="M3294 3596 l-35 -35 -9 25 c-9 22 -14 24 -80 24 l-70 0 0 -49 c0 -40
3 -50 20 -54 16 -4 20 -14 20 -46 l0 -41 61 0 c54 0 63 3 85 29 14 17 38 31
59 35 l35 7 0 69 c0 69 0 70 -26 70 -16 0 -39 -13 -60 -34z"/>
<path d="M1220 3605 c-43 -20 -77 -51 -96 -88 -14 -26 -11 -52 5 -43 4 3 33 6
64 7 40 2 62 8 74 21 22 24 40 23 66 -6 18 -19 34 -24 88 -28 l66 -4 -7 27
c-12 41 -39 77 -76 100 -46 28 -137 35 -184 14z"/>
<path d="M1752 3604 c-25 -13 -36 -14 -45 -5 -6 6 -45 11 -94 11 l-83 0 0 -41
c0 -63 39 -96 120 -102 55 -3 65 -1 85 19 26 26 60 23 75 -6 8 -15 25 -19 85
-22 68 -3 75 -1 75 16 0 31 -48 105 -79 121 -47 24 -102 28 -139 9z"/>
<path d="M2772 3599 c-49 -25 -90 -79 -98 -130 l-6 -35 59 2 c32 2 64 3 71 3
6 1 12 7 12 15 0 17 38 66 51 66 16 0 59 -52 59 -71 0 -16 8 -19 60 -19 33 0
63 1 68 3 16 5 3 69 -21 105 -49 74 -172 104 -255 61z"/>
<path d="M1990 3583 c0 -41 11 -73 24 -73 6 0 17 -13 24 -28 10 -24 19 -28 54
-30 24 -2 51 -5 61 -8 14 -4 17 1 17 30 0 20 5 36 10 36 6 0 10 23 10 50 l0
50 -100 0 -100 0 0 -27z"/>
<path d="M2245 3534 c-10 -41 -15 -77 -13 -80 3 -2 49 -6 102 -7 107 -3 106
-3 87 73 -5 19 -12 47 -15 63 -6 26 -8 27 -76 27 l-69 0 -16 -76z"/>
<path d="M2470 3561 c0 -33 5 -51 14 -54 11 -4 14 -17 10 -44 -2 -21 -2 -33 1
-27 4 7 21 8 49 4 44 -7 44 -6 59 32 9 22 22 38 31 38 12 0 16 11 16 50 l0 50
-90 0 -90 0 0 -49z"/>
<path d="M1900 3410 l-75 -5 -7 -45 c-7 -40 -28 -70 -50 -70 -14 0 -48 43 -48
61 0 41 -11 49 -64 49 -101 0 -98 5 -95 -137 2 -100 -1 -126 -13 -136 -11 -8
-14 -24 -11 -54 l5 -43 104 0 104 0 0 50 c0 43 -3 50 -20 50 -17 0 -20 7 -20
41 0 38 2 41 23 35 87 -26 132 -19 186 29 41 37 65 98 59 151 l-3 29 -75 -5z"/>
<path d="M2058 3414 c-4 -3 2 -36 13 -72 11 -37 24 -84 30 -105 l10 -38 77 3
77 3 24 83 c13 45 28 82 33 82 4 0 8 -6 8 -12 0 -7 10 -46 21 -85 l22 -73 77
0 77 0 27 93 c15 50 30 100 33 110 4 16 -1 18 -54 15 -58 -3 -58 -3 -64 -38
-6 -35 -14 -29 -21 15 -3 18 -12 20 -112 23 -119 3 -125 1 -127 -53 -1 -26 -2
-25 -11 13 l-9 42 -63 0 c-34 0 -65 -3 -68 -6z"/>
<path d="M2660 3386 c0 -109 90 -196 205 -196 92 0 172 57 195 138 18 64 15
69 -42 76 -84 10 -98 8 -98 -11 0 -10 -5 -35 -10 -55 -21 -73 -86 -53 -97 31
-5 33 -10 41 -27 41 -11 0 -45 3 -73 6 l-53 7 0 -37z"/>
<path d="M3137 3394 c-4 -4 -7 -27 -7 -51 0 -32 -4 -43 -15 -43 -11 0 -15 -12
-15 -50 l0 -50 105 0 105 0 0 49 c0 40 -3 50 -20 54 -16 4 -20 14 -20 46 l0
41 -42 0 c-24 0 -52 3 -63 6 -11 3 -24 2 -28 -2z"/>
<path d="M1399 3383 c-44 -4 -47 -6 -58 -43 -15 -49 -47 -63 -73 -30 -10 12
-18 29 -18 37 0 13 -12 15 -70 11 -39 -3 -73 -8 -77 -11 -10 -11 7 -55 34 -88
51 -60 163 -87 240 -58 62 23 123 105 123 164 0 27 5 26 -101 18z"/>
<path d="M3445 3362 c-3 -8 -5 -25 -5 -38 0 -15 -6 -24 -15 -24 -11 0 -15 -12
-15 -50 l0 -51 108 3 107 3 3 47 c3 42 1 47 -20 50 -17 2 -24 11 -28 33 -5 29
-7 30 -67 35 -47 4 -64 2 -68 -8z"/>
<path d="M3660 3343 c0 -22 36 -86 62 -109 49 -45 121 -52 176 -17 19 12 23
12 28 -2 5 -12 24 -15 90 -15 l84 0 0 48 c0 48 -1 49 -37 60 -21 6 -65 14 -98
17 -49 6 -63 4 -74 -9 -18 -21 -30 -20 -57 5 -27 26 -174 44 -174 22z"/>
<path d="M921 3329 c-30 -5 -57 -11 -59 -14 -10 -10 11 -77 33 -102 21 -25 30
-28 82 -28 86 1 93 6 93 64 l0 50 -34 -6 c-30 -5 -35 -3 -38 18 -4 28 -9 29
-77 18z"/>
<path d="M1049 2345 c-3 -11 0 -26 8 -33 7 -7 13 -25 13 -39 0 -32 -16 -20
-22 17 l-4 25 -13 -30 c-7 -16 -13 -48 -13 -70 -1 -22 -3 -31 -6 -21 -3 13
-12 -4 -28 -49 -13 -38 -24 -73 -23 -79 1 -6 1 -20 0 -31 -1 -15 -3 -17 -10
-7 -6 10 -10 6 -14 -15 -3 -15 -9 -37 -12 -48 -5 -16 -5 -17 4 -5 5 8 13 12
16 9 9 -10 -6 -39 -20 -39 -19 0 -24 -20 -12 -53 5 -15 6 -44 2 -65 -7 -35 -8
-36 -16 -13 -6 15 -5 28 2 37 7 9 7 19 1 30 -8 15 -11 12 -17 -17 -3 -19 -9
-43 -11 -54 -5 -17 -3 -18 6 -5 9 12 10 6 6 -25 -3 -22 -3 -34 0 -27 3 6 14
12 25 12 12 0 19 7 19 19 0 27 15 34 34 16 13 -14 14 -12 9 20 -4 28 -2 35 11
35 12 0 16 10 16 44 0 25 5 48 11 52 8 4 9 -1 5 -17 -6 -20 -5 -21 4 -6 6 9 8
22 5 27 -3 5 -1 18 4 29 8 14 7 20 -2 24 -18 6 -37 -3 -37 -19 0 -17 -22 -18
-38 -2 -13 13 3 52 18 43 6 -4 7 1 3 11 -4 12 -3 15 5 10 7 -4 12 -3 12 3 0 5
3 17 7 27 5 14 3 16 -11 11 -12 -5 -16 -3 -14 5 4 11 17 14 46 9 4 0 6 -19 4
-41 -3 -31 -1 -40 12 -40 10 0 13 6 9 15 -3 10 0 15 8 13 13 -3 15 4 18 60 1
13 6 20 11 17 14 -9 12 8 -2 24 -11 11 -10 13 5 8 11 -4 17 -1 17 8 0 8 -4 15
-8 15 -4 0 -9 14 -10 31 -2 19 2 28 8 24 5 -3 10 -1 10 5 0 6 5 8 10 5 6 -3
10 1 10 10 0 11 7 15 22 13 16 -2 24 3 29 22 4 17 6 11 5 -22 0 -25 -4 -44 -8
-41 -5 2 -8 -5 -8 -16 0 -12 -5 -21 -11 -21 -5 0 -7 5 -4 10 3 6 1 10 -4 10
-15 0 -14 -16 2 -32 8 -9 11 -37 9 -85 -4 -71 -16 -96 -25 -50 -2 12 -5 -6 -6
-41 0 -35 3 -61 7 -58 5 3 6 -9 4 -26 -3 -22 -7 -26 -14 -17 -5 9 -6 3 -2 -16
8 -33 25 -50 35 -33 4 5 9 6 12 2 5 -9 -17 -35 -30 -34 -9 0 -9 -4 1 -52 8
-37 36 -54 36 -23 0 8 5 15 10 15 6 0 10 -5 10 -12 0 -6 7 -3 15 8 8 10 15 31
15 45 0 15 6 32 14 38 8 7 17 24 21 38 4 19 9 23 14 14 6 -10 10 -10 16 -1 4
7 -1 13 -14 17 -23 6 -29 23 -8 23 8 0 9 2 1 8 -6 4 -14 17 -18 30 -4 12 -12
19 -18 16 -7 -4 -7 0 0 12 5 11 7 26 5 34 -4 13 -3 13 6 0 9 -12 11 -10 11 12
0 17 -8 33 -19 40 -20 12 -18 32 5 56 10 10 14 7 17 -15 2 -16 5 -4 6 25 1 50
-12 71 -22 35 -4 -17 -5 -17 -6 0 -1 12 -5 16 -13 11 -9 -5 -9 -3 1 9 7 9 17
14 22 11 5 -3 9 -1 9 4 0 6 -7 13 -16 16 -15 6 -15 8 2 25 18 17 19 17 25 -13
6 -29 6 -29 8 9 2 78 -4 85 -70 85 -43 0 -59 4 -59 14 0 14 -46 11 -67 -6 -8
-6 -13 -3 -15 9 -3 16 -4 16 -9 -2z m-2 -154 c-10 -11 -13 -9 -18 10 -8 33 0
44 16 22 10 -14 11 -21 2 -32z m146 -8 c-5 -2 -6 -22 -4 -46 l5 -42 7 40 7 40
-2 -39 c-2 -57 -22 -56 -29 1 -3 26 -1 50 4 51 5 2 10 11 10 20 1 13 3 12 6
-3 3 -10 1 -21 -4 -22z m-147 -29 c-3 -9 -6 -21 -6 -27 0 -8 -3 -8 -10 -1 -12
12 -3 44 12 44 6 0 7 -7 4 -16z m11 -56 c-3 -8 -6 -5 -6 6 -1 11 2 17 5 13 3
-3 4 -12 1 -19z m167 -173 c-4 -8 -8 -15 -10 -15 -2 0 -4 7 -4 15 0 8 4 15 10
15 5 0 7 -7 4 -15z m-274 -50 c0 -19 -4 -35 -10 -35 -11 0 -13 30 -4 54 10 25
14 19 14 -19z m234 -59 c-3 -9 -10 -13 -15 -10 -5 3 -3 11 4 19 15 16 19 13
11 -9z"/>
<path d="M1444 2328 c-8 -15 -13 -33 -12 -40 2 -7 -3 -12 -9 -10 -7 1 -13 -4
-13 -12 0 -7 -7 -19 -15 -26 -10 -8 -14 -24 -11 -42 2 -15 0 -28 -6 -28 -6 0
-7 8 -4 18 5 15 4 14 -9 -2 -8 -10 -12 -23 -9 -28 3 -5 8 -24 11 -41 6 -39 6
-39 27 -31 14 5 15 9 4 15 -9 6 -10 9 -1 9 7 0 10 7 7 15 -4 8 -1 15 6 15 7 0
10 7 6 15 -3 8 -1 15 4 15 6 0 10 -5 10 -11 0 -5 4 -8 9 -5 11 7 3 46 -9 46
-7 0 -7 22 0 40 1 3 2 9 0 15 -1 5 7 2 17 -8 17 -15 21 -15 40 -2 14 10 24 12
28 5 3 -5 2 -10 -3 -10 -5 0 -12 -9 -15 -20 -3 -11 0 -18 6 -17 6 1 13 -9 15
-22 4 -23 3 -23 -13 -8 -22 23 -28 21 -15 -3 8 -15 6 -24 -10 -40 -11 -11 -17
-20 -12 -20 4 0 1 -4 -7 -9 -12 -8 -12 -12 2 -26 10 -9 17 -24 17 -32 0 -14
-2 -14 -18 0 -23 21 -34 12 -25 -21 4 -18 1 -29 -13 -39 -10 -8 -18 -16 -17
-18 5 -11 -10 -65 -18 -65 -5 0 -9 -10 -9 -23 0 -13 -6 -29 -12 -36 -9 -9 -9
-12 -1 -7 6 3 14 0 16 -6 3 -7 6 -1 6 13 1 24 17 39 41 39 4 0 6 -9 3 -21 -3
-11 -11 -18 -19 -15 -9 3 -16 -7 -20 -32 -5 -25 -9 -31 -13 -20 -8 22 -26 10
-36 -22 -7 -24 -7 -24 9 -5 12 15 15 16 10 3 -5 -14 -1 -16 22 -12 16 3 32 10
35 16 4 7 9 5 12 -3 3 -8 6 2 6 22 1 24 7 39 17 43 11 4 14 15 10 36 -2 17 0
28 5 24 5 -3 9 -15 9 -28 0 -12 5 -27 12 -34 9 -9 9 -15 0 -24 -7 -7 -12 -20
-12 -30 0 -10 -7 -18 -15 -18 -8 0 -15 -7 -15 -15 0 -26 29 -16 36 13 3 15 13
43 22 62 9 19 16 50 16 69 0 19 2 29 4 22 3 -9 7 -9 17 -1 10 9 16 7 24 -9 14
-25 14 -34 1 -26 -5 3 -10 -1 -10 -10 0 -9 4 -14 9 -10 10 5 24 -26 19 -41 -2
-5 1 -10 6 -11 5 -1 14 -12 20 -25 7 -14 19 -22 30 -20 13 2 16 -1 10 -10 -4
-7 -4 -10 1 -6 4 4 16 3 26 -3 11 -6 19 -6 19 0 0 5 -7 12 -15 15 -12 4 -14
10 -5 25 7 13 7 22 0 26 -5 3 -10 1 -10 -4 0 -19 -38 -11 -45 9 -9 30 4 44 23
26 10 -8 35 -16 57 -18 31 -2 40 -7 42 -23 2 -11 0 -14 -3 -7 -10 22 -34 13
-34 -13 0 -37 34 -33 50 6 10 22 15 27 21 17 5 -7 9 -8 9 -3 0 11 20 -16 20
-27 0 -5 -7 -8 -15 -8 -25 0 -17 -17 11 -23 22 -4 25 -1 21 15 -5 18 -1 19 46
16 46 -3 53 0 62 20 5 12 15 20 20 18 16 -6 48 21 40 34 -3 6 -1 9 6 8 8 -2
13 7 13 22 1 14 6 24 12 23 7 -1 10 9 7 25 -3 23 -2 24 6 7 5 -11 10 -14 10
-7 1 7 6 10 11 7 6 -4 10 5 10 19 0 14 4 26 8 26 11 0 32 68 22 72 -4 2 -4 12
1 23 7 19 8 19 8 -2 1 -12 5 -24 10 -27 4 -3 6 -16 4 -29 -3 -15 1 -26 10 -30
10 -4 14 0 12 11 -1 9 3 20 8 24 7 4 7 11 -2 22 -8 10 -9 20 -3 32 7 13 11 7
16 -25 3 -23 4 -46 1 -51 -25 -40 -28 -254 -3 -219 7 10 8 8 5 -8 -3 -13 -1
-23 4 -23 5 0 9 5 9 11 0 7 18 9 48 7 35 -2 46 0 44 10 -1 8 2 11 8 7 6 -4 9
-14 6 -24 -5 -12 -2 -11 9 3 8 11 15 26 15 33 0 7 3 13 8 13 4 0 20 23 35 50
16 28 26 50 23 50 -3 0 -13 -14 -22 -31 -12 -25 -18 -29 -25 -18 -5 8 -9 21
-9 29 0 12 2 13 9 1 7 -11 10 -9 16 8 3 11 14 21 23 21 15 0 15 2 2 10 -10 6
-11 10 -2 10 6 0 12 7 12 15 0 8 5 15 11 15 6 0 8 -9 4 -22 -5 -18 -4 -20 4
-8 6 8 11 23 11 33 0 10 4 16 8 13 4 -2 8 3 9 13 1 10 -5 18 -13 18 -8 0 -14
-4 -14 -8 0 -4 -8 -6 -17 -4 -10 2 -24 4 -32 4 -7 1 -11 7 -7 16 12 32 -4 13
-25 -31 -13 -25 -27 -48 -31 -50 -12 -8 -28 39 -17 51 12 12 12 82 -1 87 -6 2
-6 18 0 43 5 22 9 60 8 85 l-1 45 -7 -55 -7 -55 -1 57 c-1 31 -5 64 -8 73 -5
11 0 18 13 21 14 4 19 15 20 42 0 21 -2 30 -6 20 -4 -12 -10 -15 -21 -8 -9 6
-19 5 -28 -3 -21 -17 -62 -20 -79 -5 -14 11 -15 10 -9 -8 4 -14 0 -29 -12 -44
-21 -26 -42 -20 -42 11 0 14 -7 19 -30 19 -26 0 -35 8 -32 31 1 4 -8 9 -19 12
-16 4 -18 3 -9 -8 9 -11 7 -12 -9 -8 -12 3 -21 9 -21 14 0 5 -17 9 -37 8 -31
0 -34 -2 -18 -9 14 -6 16 -9 5 -10 -8 -1 -19 -3 -25 -5 -5 -1 -17 -3 -25 -4
-13 -1 -13 -3 0 -10 8 -6 18 -7 22 -5 10 6 9 -4 -1 -31 -8 -18 -10 -17 -27 13
-11 17 -25 30 -31 27 -7 -2 -13 0 -13 4 0 5 6 12 13 14 9 4 9 6 -1 6 -16 1
-71 -27 -89 -44 -10 -11 -10 -14 0 -18 9 -4 9 -6 -1 -6 -7 -1 -11 -5 -8 -9 3
-5 -1 -9 -9 -9 -8 0 -15 5 -15 10 0 6 -9 0 -20 -13 -11 -12 -17 -27 -14 -32 4
-6 -3 -5 -15 1 -12 7 -21 21 -21 34 0 16 3 19 9 8 6 -10 12 1 19 35 11 53 8
71 -6 33 l-9 -23 -12 22 c-11 21 -18 22 -97 20 -82 -2 -86 -3 -100 -30z m180
9 c-7 -19 -60 -19 -75 -1 -10 12 -4 14 34 14 35 0 45 -3 41 -13z m-135 -23
c-9 -11 -15 -12 -26 -3 -17 14 1 31 24 22 10 -4 11 -9 2 -19z m295 -2 c3 -5
-1 -9 -9 -9 -8 0 -12 4 -9 9 3 4 7 8 9 8 2 0 6 -4 9 -8z m210 -21 c-28 -5 -64
-32 -64 -47 0 -8 4 -14 10 -14 5 0 12 -11 16 -25 3 -14 10 -25 15 -25 11 0 6
-156 -4 -167 -4 -3 -7 11 -7 32 0 49 -10 40 -14 -13 -3 -33 0 -39 14 -35 12 3
16 -1 15 -16 -2 -25 -15 -41 -15 -18 0 10 -7 17 -15 17 -8 0 -15 -7 -15 -16 0
-9 5 -13 13 -9 6 4 4 0 -6 -9 -13 -10 -17 -22 -12 -38 5 -18 4 -20 -4 -8 -9
13 -12 13 -20 1 -5 -8 -7 -21 -4 -30 5 -12 3 -13 -6 -5 -10 9 -8 20 8 52 12
23 21 47 21 54 0 7 -11 -9 -25 -36 -13 -26 -30 -55 -36 -62 -6 -8 -8 -14 -3
-14 5 0 2 -5 -6 -10 -11 -7 -7 -9 15 -6 17 2 24 1 17 -1 -10 -4 -10 -8 -2 -18
7 -8 9 -19 5 -26 -4 -6 -10 -7 -14 -2 -19 27 -102 59 -86 33 3 -5 1 -10 -4
-10 -6 0 -11 4 -11 10 0 6 -18 7 -45 3 -57 -7 -75 7 -74 56 l2 36 7 -40 c4
-22 8 -34 9 -27 1 16 21 16 21 -1 0 -7 9 -13 21 -13 18 0 19 2 4 12 -12 9 -13
13 -3 16 10 2 11 16 7 53 -5 43 -6 45 -8 15 -3 -33 -4 -33 -11 -10 -4 14 -8
19 -9 13 -1 -7 -5 -13 -10 -13 -6 0 -6 12 -1 29 4 16 5 33 2 37 -4 4 -1 4 6 0
6 -4 12 -2 12 4 0 6 4 9 8 6 4 -2 9 3 10 12 5 40 5 48 4 70 -1 13 -6 20 -12
17 -5 -3 -10 1 -10 9 0 37 44 29 46 -9 1 -14 -2 -22 -7 -19 -5 3 -9 1 -9 -5 0
-24 19 -18 28 8 9 25 7 32 -17 55 -21 20 -26 33 -23 56 5 33 16 39 26 13 4
-11 1 -22 -9 -29 -14 -10 -14 -13 0 -24 8 -7 15 -9 15 -4 0 5 6 2 13 -7 11
-14 14 -12 30 19 13 26 14 32 4 24 -12 -10 -16 -9 -21 4 -4 9 -4 19 -1 22 3 3
5 -1 5 -9 1 -10 4 -9 11 4 13 23 2 39 -22 32 -23 -8 -24 -2 -3 19 23 23 46 20
42 -6 -2 -11 3 -23 11 -26 10 -3 12 1 8 17 -5 19 -2 22 21 19 15 -2 26 -9 25
-15 -2 -8 7 -13 22 -13 18 0 26 7 31 25 3 14 4 31 1 38 -4 10 4 11 40 2 26 -6
38 -12 27 -14z m-537 -23 c-3 -7 -5 -2 -5 12 0 14 2 19 5 13 2 -7 2 -19 0 -25z
m175 -51 c-6 -12 -10 -5 -16 25 -2 14 -1 29 2 33 8 8 21 -46 14 -58z m378 28
c0 -14 -4 -25 -10 -25 -11 0 -14 33 -3 43 11 11 13 8 13 -18z m132 3 c4 -10
10 -10 31 -1 26 12 26 12 24 -28 -1 -23 -3 -36 -5 -30 -2 6 -8 11 -14 11 -5 0
-17 7 -26 16 -10 11 -17 13 -20 5 -2 -6 -11 -11 -21 -11 -22 0 -25 37 -3 43
28 8 30 7 34 -5z m68 -186 c-11 -16 -11 -16 -6 1 3 10 7 60 8 110 l2 92 3 -93
c2 -56 -1 -99 -7 -110z m-145 168 c3 -5 1 -10 -4 -10 -6 0 -11 5 -11 10 0 6 2
10 4 10 3 0 8 -4 11 -10z m-501 -65 c4 -13 2 -14 -14 -5 -23 13 -26 20 -6 20
8 0 16 -7 20 -15z m453 -47 c-2 -13 -4 -3 -4 22 0 25 2 35 4 23 2 -13 2 -33 0
-45z m-478 -44 c-6 -8 -6 -14 1 -17 6 -3 5 -4 -2 -3 -7 2 -12 10 -12 19 1 12
-2 14 -15 8 -13 -7 -17 -5 -17 9 0 10 6 16 13 13 7 -3 13 1 13 8 0 7 6 5 14
-7 9 -12 11 -23 5 -30z m142 -37 c-8 -8 -11 -3 -11 19 1 25 2 27 11 11 8 -14
8 -22 0 -30z m583 -45 c-4 -9 -8 -20 -8 -24 -3 -24 -16 -16 -16 10 0 18 5 32
10 32 6 0 11 10 11 23 l2 22 4 -23 c3 -13 1 -31 -3 -40z m-180 3 c-4 -8 -10
-12 -15 -9 -11 6 -2 24 11 24 5 0 7 -7 4 -15z m259 -22 c-3 -10 -10 -23 -15
-30 -5 -7 -5 -14 2 -18 5 -3 10 -11 10 -16 0 -6 -4 -7 -10 -4 -5 3 -10 2 -10
-4 0 -6 -10 -16 -22 -22 -19 -9 -21 -9 -10 2 6 7 12 18 12 25 0 21 30 84 40
84 5 0 7 -8 3 -17z m-888 -53 c3 -5 1 -10 -4 -10 -6 0 -11 5 -11 10 0 6 2 10
4 10 3 0 8 -4 11 -10z m527 -15 c3 -13 1 -22 -3 -19 -9 5 -13 44 -5 44 2 0 6
-11 8 -25z m-475 -52 c-3 -10 -5 -4 -5 12 0 17 2 24 5 18 2 -7 2 -21 0 -30z
m430 5 c-3 -8 -6 -5 -6 6 -1 11 2 17 5 13 3 -3 4 -12 1 -19z m383 -9 c0 -6 -4
-7 -10 -4 -5 3 -10 -2 -11 -12 0 -11 -3 -13 -6 -5 -7 18 5 44 17 37 5 -3 10
-11 10 -16z m-345 -18 c3 -5 2 -12 -3 -15 -5 -3 -9 1 -9 9 0 17 3 19 12 6z"/>
<path d="M1962 2120 c0 -19 2 -27 5 -17 2 9 2 25 0 35 -3 9 -5 1 -5 -18z"/>
<path d="M1758 1853 c12 -2 32 -2 45 0 12 2 2 4 -23 4 -25 0 -35 -2 -22 -4z"/>
<path d="M2148 2353 c12 -2 30 -2 40 0 9 3 -1 5 -23 4 -22 0 -30 -2 -17 -4z"/>
<path d="M2532 2332 c-1 -14 -9 -34 -18 -43 -9 -10 -20 -33 -25 -51 -8 -32 -8
-32 -5 -3 2 17 7 39 11 50 l8 20 -16 -20 c-9 -11 -17 -30 -17 -43 0 -13 -4
-21 -9 -18 -13 9 -23 -26 -11 -38 8 -8 14 -7 20 4 6 9 10 10 10 3 0 -6 -5 -15
-10 -18 -6 -4 -8 -10 -5 -15 3 -4 -4 -6 -15 -3 -11 3 -20 0 -20 -6 0 -6 -7
-11 -15 -11 -18 0 -18 -5 -5 -30 9 -16 8 -18 -6 -13 -12 4 -15 3 -10 -5 5 -8
2 -10 -8 -6 -10 4 -16 1 -16 -8 0 -8 8 -14 18 -14 9 1 17 -3 17 -9 0 -5 -8
-10 -18 -9 -11 0 -16 -4 -13 -13 3 -7 1 -13 -5 -13 -6 0 -7 -5 -3 -11 5 -8 9
-7 14 1 5 9 19 11 40 6 23 -4 31 -3 27 7 -15 39 -19 61 -9 52 5 -5 12 -19 14
-29 3 -18 5 -17 22 9 16 24 16 27 2 22 -9 -4 -16 -4 -16 -1 0 9 28 34 39 34 5
0 15 16 22 35 7 19 16 35 20 35 14 0 19 -34 7 -42 -10 -7 -9 -9 2 -5 8 2 15
10 15 18 0 8 5 17 10 21 22 16 42 6 53 -27 9 -24 17 -32 28 -28 13 5 13 7 2
14 -10 7 -9 9 5 9 10 0 20 7 24 16 5 13 8 13 15 2 8 -10 9 -10 5 2 -2 8 2 28
10 43 8 16 12 31 9 35 -3 3 -6 0 -6 -8 0 -10 -3 -10 -15 0 -8 7 -15 22 -14 34
1 19 2 18 9 -4 4 -14 8 -19 9 -12 1 6 10 12 22 12 11 0 18 -4 15 -9 -6 -9 183
-5 211 4 6 2 14 -1 17 -8 2 -7 5 -4 5 6 1 9 6 17 11 17 10 0 6 31 -7 70 -4 11
-7 10 -14 -7 -5 -14 -17 -23 -29 -23 -11 0 -20 -5 -20 -11 0 -5 -5 -7 -10 -4
-6 4 -8 10 -5 15 8 13 -43 20 -125 16 -82 -4 -135 8 -110 24 11 7 9 10 -12 10
-14 0 -28 -5 -30 -11 -3 -8 -17 -9 -49 -2 -44 9 -45 9 -47 -15z m278 -54 c0
-16 -3 -19 -11 -11 -6 6 -8 16 -5 22 11 17 16 13 16 -11z m-240 -2 c0 -3 -4
-8 -10 -11 -5 -3 -10 -1 -10 4 0 6 5 11 10 11 6 0 10 -2 10 -4z m87 -48 c-3
-8 -6 -5 -6 6 -1 11 2 17 5 13 3 -3 4 -12 1 -19z m-87 -12 c0 -2 -16 -6 -35
-8 -19 -2 -35 0 -35 4 0 4 16 8 35 8 19 0 35 -2 35 -4z m105 -54 c-6 -15 -8
-14 -16 6 -11 29 0 52 13 28 5 -10 7 -25 3 -34z m22 33 c0 -8 -4 -12 -9 -9 -5
3 -6 10 -3 15 9 13 12 11 12 -6z m-189 -30 c-3 -3 -9 2 -12 12 -6 14 -5 15 5
6 7 -7 10 -15 7 -18z"/>
<path d="M2726 2351 c-3 -4 6 -6 19 -3 14 2 25 6 25 8 0 8 -39 4 -44 -5z"/>
<path d="M2818 2353 c6 -2 18 -2 25 0 6 3 1 5 -13 5 -14 0 -19 -2 -12 -5z"/>
<path d="M2881 2356 c10 -9 79 -14 79 -5 0 5 -19 9 -42 9 -23 0 -39 -2 -37 -4z"/>
<path d="M2997 2353 c8 -3 11 -15 8 -31 -5 -23 -4 -24 4 -7 15 31 13 45 -6 44
-11 0 -13 -3 -6 -6z"/>
<path d="M3068 2355 c-10 -10 24 -75 35 -68 6 4 8 0 4 -10 -4 -11 -2 -14 8
-10 8 3 17 -1 20 -8 4 -11 27 -13 97 -11 67 3 93 0 99 -10 6 -9 9 -3 10 17 3
66 -2 62 77 53 20 -2 14 -18 -8 -18 -18 0 -26 -16 -21 -44 1 -5 -5 -6 -13 -3
-9 4 -18 2 -21 -3 -6 -10 7 -14 33 -11 16 2 15 -7 -2 -57 -8 -22 -12 -43 -9
-46 4 -3 -1 -6 -10 -6 -9 0 -16 -5 -14 -12 1 -6 -11 -13 -28 -14 -16 -2 -34
-9 -40 -16 -5 -7 -25 -13 -42 -12 -18 1 -33 -3 -33 -7 0 -5 5 -9 10 -9 6 0 10
-8 11 -17 0 -16 2 -15 10 2 7 16 8 13 4 -12 -3 -20 0 -33 6 -33 6 0 9 -6 6
-14 -3 -8 -3 -17 0 -20 10 -10 33 15 33 35 0 10 5 21 12 25 6 4 8 3 5 -3 -4
-6 -9 -29 -12 -53 -3 -23 -7 -45 -9 -49 -8 -13 14 -52 25 -45 8 4 9 3 5 -5
-10 -16 3 -51 19 -51 7 0 18 -14 24 -30 6 -18 6 -28 1 -25 -6 4 -10 2 -10 -4
0 -15 14 -21 39 -14 12 3 20 11 17 18 -6 17 10 39 23 31 6 -4 9 -12 5 -18 -3
-5 2 -9 12 -7 11 1 32 -1 48 -6 22 -6 32 -4 42 9 12 17 13 16 24 -3 12 -24 45
-29 37 -7 -6 16 8 14 51 -7 17 -8 26 -7 35 2 9 10 9 11 -4 6 -10 -4 -20 -2
-23 3 -3 5 15 10 41 11 25 0 50 4 57 8 6 4 6 0 -2 -9 -10 -13 -10 -17 4 -22
24 -9 31 -7 14 5 -12 9 -10 10 8 6 18 -4 22 -2 18 10 -4 11 -2 13 9 10 8 -4
17 -2 20 4 4 5 11 7 16 4 5 -4 9 -1 9 6 0 7 -11 10 -30 7 -16 -3 -30 -1 -30 4
0 4 7 8 15 8 27 0 30 1 48 17 14 13 17 13 18 2 0 -8 4 -4 9 9 5 12 14 22 20
22 6 0 10 24 10 56 0 49 -2 54 -15 40 -8 -8 -15 -22 -15 -31 0 -26 -68 -88
-88 -79 -16 7 -16 7 0 11 31 8 30 68 -2 76 -16 4 -19 -2 -22 -32 -2 -20 -7
-36 -13 -37 -5 0 -25 -4 -44 -8 -25 -6 -30 -11 -20 -17 10 -6 5 -9 -16 -11
-56 -3 -60 -4 -72 -11 -9 -6 -11 -3 -6 8 7 20 -12 35 -47 35 -18 0 -21 -3 -12
-9 10 -6 7 -10 -12 -15 -30 -7 -83 18 -89 43 -3 10 -5 6 -6 -7 -1 -32 -19 -62
-36 -62 -9 0 -12 9 -10 30 3 21 -1 33 -11 37 -20 7 -26 -1 -26 -32 0 -14 -5
-25 -10 -25 -5 0 -6 5 -2 12 5 7 3 8 -6 3 -9 -6 -10 -2 -5 16 4 13 12 27 18
30 5 4 7 18 3 32 -7 28 1 57 15 57 5 0 9 -15 9 -32 0 -40 16 -71 24 -48 2 8 7
22 9 30 3 8 6 3 6 -12 1 -14 -4 -28 -11 -30 -9 -3 -9 -6 0 -12 8 -5 15 1 21
16 9 25 -18 92 -41 101 -8 3 -2 9 14 17 15 7 24 18 21 25 -2 7 5 16 17 20 13
4 19 12 16 21 -3 8 1 14 9 14 8 0 21 10 30 23 l17 22 -5 -27 c-6 -38 9 -26 17
12 8 40 26 29 26 -15 0 -40 44 -89 73 -81 9 2 17 -1 17 -9 0 -7 10 -15 23 -18
20 -6 21 -5 4 7 -16 12 -16 14 -2 20 9 3 13 2 10 -4 -3 -6 1 -10 10 -10 11 0
15 -5 11 -16 -3 -8 -2 -12 4 -9 6 3 10 1 10 -5 0 -8 10 -10 28 -6 20 5 23 4
12 -4 -12 -8 -10 -10 12 -10 15 0 30 5 33 10 10 16 22 12 28 -10 7 -28 35 -25
49 5 14 31 46 32 58 3 8 -21 9 -22 11 -3 1 11 0 25 -1 30 -1 6 -3 16 -3 23 0
6 -4 12 -9 12 -5 0 -6 4 -3 10 3 6 -1 7 -9 4 -9 -3 -17 -1 -17 5 -1 6 -2 16
-3 23 -1 13 -73 58 -91 57 -5 0 2 -7 18 -15 15 -8 27 -16 27 -17 0 -1 -13 -2
-30 -2 -16 0 -30 3 -30 8 0 4 -7 7 -15 7 -9 0 -12 -6 -9 -17 5 -15 4 -16 -5
-3 -6 8 -11 26 -11 39 0 21 -24 50 -41 51 -4 0 -9 -9 -12 -21 -5 -18 -2 -20
19 -16 19 3 24 0 24 -17 0 -17 -6 -21 -30 -21 -24 0 -30 4 -30 21 0 28 60 144
74 144 6 0 4 -5 -4 -11 -12 -9 -12 -10 3 -5 10 3 30 6 43 6 21 0 23 2 12 14
-7 8 -17 10 -23 6 -6 -5 -11 2 -12 19 -2 25 1 28 30 28 27 1 29 0 12 -8 -17
-8 -16 -9 7 -6 18 3 25 0 21 -9 -2 -6 1 -15 7 -19 8 -5 5 -11 -7 -20 -17 -13
-17 -14 2 -10 11 2 22 4 25 5 3 1 25 1 50 0 36 -1 50 4 65 21 11 12 14 19 8
15 -9 -5 -13 -1 -13 10 0 14 -3 15 -12 6 -17 -17 -35 -15 -35 3 0 9 6 14 14
11 8 -3 11 -1 8 4 -4 6 -12 10 -18 9 -7 -1 -21 -1 -32 0 -17 1 -18 3 -5 12 12
9 11 10 -7 6 -13 -3 -26 -1 -29 4 -3 5 -19 9 -35 9 -17 0 -28 -4 -25 -9 4 -5
-3 -7 -14 -4 -11 3 -20 0 -20 -6 0 -6 -16 -11 -36 -11 -19 0 -45 -5 -57 -11
-15 -9 -22 -9 -25 -1 -8 25 -42 -12 -42 -45 0 -18 -4 -33 -10 -33 -5 0 -10 4
-10 10 0 5 -7 7 -15 4 -8 -4 -17 1 -21 10 -3 9 -9 14 -14 11 -4 -2 -16 2 -26
10 -18 13 -18 14 -2 20 10 4 16 11 13 16 -3 4 -12 6 -20 3 -14 -6 -56 12 -67
29 -4 7 -12 6 -22 -2 -12 -10 -16 -10 -16 -2 0 13 -41 5 -50 -10 -3 -4 -22 -9
-43 -11 -20 -1 -37 -6 -37 -11 0 -6 -20 -7 -47 -3 -27 4 -56 7 -65 7 -10 0
-18 7 -18 16 0 10 -6 13 -16 9 -8 -3 -12 -2 -9 4 3 6 1 10 -6 10 -7 0 -9 -10
-5 -30 7 -39 -1 -39 -11 1 -5 17 -11 27 -15 24z m769 -11 c-3 -3 -12 -4 -19
-1 -8 3 -5 6 6 6 11 1 17 -2 13 -5z m32 -23 c7 -5 9 -11 5 -14 -5 -3 -15 1
-22 9 -14 16 -5 18 17 5z m-202 -28 c-4 9 -2 17 4 17 6 0 9 -8 7 -17 -2 -13
-11 -17 -28 -15 -31 5 -34 8 -25 22 5 8 13 6 28 -7 19 -17 20 -17 14 0z m-387
-13 c0 -5 -21 -9 -47 -9 l-48 2 40 7 c22 4 43 8 48 9 4 0 7 -3 7 -9z m50 -9
c0 -4 -6 -8 -14 -8 -8 0 -12 6 -9 14 5 13 23 9 23 -6z m90 -21 c0 -11 -2 -20
-4 -20 -2 0 -6 9 -9 20 -3 11 -1 20 4 20 5 0 9 -9 9 -20z m247 4 c-3 -3 -12
-4 -19 -1 -8 3 -5 6 6 6 11 1 17 -2 13 -5z m-137 -13 c0 10 3 10 11 2 13 -13
5 -43 -12 -43 -6 0 -13 9 -16 20 -3 11 -10 17 -16 13 -6 -3 -7 -1 -3 6 6 9 11
9 22 0 11 -9 14 -8 14 2z m83 -36 c-6 -17 -30 -9 -30 9 0 8 8 11 18 9 10 -3
15 -11 12 -18z m85 5 c-7 -11 -15 -15 -17 -9 -2 6 3 15 10 20 20 12 21 11 7
-11z m-38 -19 c0 -6 -4 -13 -10 -16 -5 -3 -10 1 -10 9 0 9 5 16 10 16 6 0 10
-4 10 -9z m-110 -22 c0 -6 -4 -7 -10 -4 -5 3 -10 11 -10 16 0 6 5 7 10 4 6 -3
10 -11 10 -16z m-124 -44 c-11 -8 -16 -15 -11 -15 4 0 0 -8 -9 -19 -9 -10 -16
-24 -14 -31 4 -14 -29 -22 -38 -9 -3 5 2 9 10 9 10 0 16 9 16 23 0 14 11 29
28 39 33 21 44 23 18 3z m153 -12 c0 -16 -4 -37 -8 -48 -7 -17 -9 -14 -13 15
-3 19 -3 41 -1 48 9 22 23 13 22 -15z m-265 -68 c-4 -8 -8 -15 -10 -15 -2 0
-4 7 -4 15 0 8 4 15 10 15 5 0 7 -7 4 -15z m530 5 c17 -6 26 -17 26 -31 0 -12
-3 -19 -7 -16 -3 4 -12 2 -20 -5 -11 -9 -13 -7 -9 15 3 18 -1 30 -12 37 -22
12 -10 13 22 0z m-522 -122 c-8 -8 -9 -4 -5 13 4 13 8 18 11 10 2 -7 -1 -18
-6 -23z m-12 -28 c0 -5 -2 -10 -4 -10 -3 0 -8 5 -11 10 -3 6 -1 10 4 10 6 0
11 -4 11 -10z m577 -22 c-3 -8 -6 -5 -6 6 -1 11 2 17 5 13 3 -3 4 -12 1 -19z
m-152 -38 c3 -5 2 -10 -4 -10 -5 0 -13 5 -16 10 -3 6 -2 10 4 10 5 0 13 -4 16
-10z"/>
<path d="M3218 2353 c23 -2 59 -2 80 0 20 2 1 4 -43 4 -44 0 -61 -2 -37 -4z"/>
<path d="M1147 2233 c-4 -3 -7 -11 -7 -17 0 -6 5 -5 12 2 6 6 9 14 7 17 -3 3
-9 2 -12 -2z"/>
<path d="M1471 2144 c0 -11 3 -14 6 -6 3 7 2 16 -1 19 -3 4 -6 -2 -5 -13z"/>
<path d="M1133 2110 c0 -25 2 -35 4 -22 2 12 2 32 0 45 -2 12 -4 2 -4 -23z"/>
<path d="M1334 2131 c3 -5 -1 -11 -9 -15 -8 -3 -15 -10 -15 -15 0 -6 8 -7 17
-4 12 5 15 2 10 -10 -3 -9 -2 -19 3 -22 11 -7 -4 -40 -27 -63 -7 -7 -13 -20
-13 -28 0 -8 -9 -14 -21 -14 -18 0 -19 -2 -9 -15 7 -8 16 -13 20 -10 5 3 6 -5
3 -17 -4 -18 0 -15 16 10 12 18 21 35 21 37 0 3 11 22 25 43 24 36 24 38 8 85
-8 26 -20 47 -25 47 -5 0 -7 -4 -4 -9z m27 -98 c-12 -20 -14 -14 -5 12 4 9 9
14 11 11 3 -2 0 -13 -6 -23z"/>
<path d="M2577 2134 c-3 -3 -3 -12 0 -20 3 -8 0 -14 -7 -14 -6 0 -8 5 -5 10 3
6 -1 10 -9 10 -10 0 -22 -23 -36 -67 -18 -58 -19 -69 -6 -78 12 -9 12 -14 0
-35 l-13 -25 -2 30 c-1 28 -2 28 -8 -7 -4 -20 -13 -43 -20 -51 -6 -8 -8 -23
-4 -32 5 -14 3 -16 -7 -10 -10 6 -12 3 -8 -13 4 -12 3 -20 -1 -17 -9 5 -35
-74 -27 -82 3 -3 9 10 15 28 6 24 9 27 10 13 1 -30 14 -33 116 -23 55 5 91 4
93 -2 5 -12 59 -12 67 1 4 6 27 10 51 9 32 -2 49 2 62 16 9 10 11 15 5 11 -7
-4 -13 -2 -13 4 0 6 -10 8 -25 4 -32 -8 -115 4 -115 17 0 5 9 9 20 9 11 0 20
-4 20 -10 0 -13 51 -13 84 0 26 10 36 32 14 29 -7 -1 -31 0 -53 1 l-40 3 40 7
c32 6 24 7 -42 9 -68 1 -83 -2 -83 -14 0 -11 -11 -15 -37 -15 -36 1 -37 2 -19
15 20 15 20 15 0 16 -16 0 -16 2 4 10 16 6 23 16 22 31 -1 13 -1 34 0 48 1 22
2 23 9 6 7 -19 8 -19 13 2 6 20 13 21 114 24 85 2 108 6 111 18 4 12 3 12 -5
1 -8 -10 -10 -11 -14 -1 -5 16 -125 19 -212 6 -48 -7 -58 -6 -54 5 3 8 16 13
28 11 13 -1 49 5 79 14 45 13 52 18 36 24 -11 4 -21 4 -23 0 -2 -4 -19 -4 -39
0 -19 5 -42 6 -49 3 -11 -4 -14 5 -14 36 0 38 -8 50 -23 35z m-46 -111 c-12
-20 -14 -14 -5 12 4 9 9 14 11 11 3 -2 0 -13 -6 -23z m63 -108 c-23 -35 -29
-25 -7 13 10 18 19 27 21 22 2 -5 -4 -20 -14 -35z m-21 28 c-7 -2 -19 -2 -25
0 -7 3 -2 5 12 5 14 0 19 -2 13 -5z m-73 -139 c0 -24 -5 -34 -15 -34 -10 0
-15 10 -15 33 0 19 3 37 6 40 13 13 24 -5 24 -39z m187 40 c-3 -3 -12 -4 -19
-1 -8 3 -5 6 6 6 11 1 17 -2 13 -5z"/>
<path d="M2686 2123 c-6 -14 -5 -15 5 -6 7 7 10 15 7 18 -3 3 -9 -2 -12 -12z"/>
<path d="M3760 2120 c0 -5 5 -10 10 -10 6 0 10 5 10 10 0 6 -4 10 -10 10 -5 0
-10 -4 -10 -10z"/>
<path d="M3521 2104 c0 -11 3 -14 6 -6 3 7 2 16 -1 19 -3 4 -6 -2 -5 -13z"/>
<path d="M2638 2103 c-24 -6 -23 -23 1 -23 10 0 21 7 25 15 6 15 4 16 -26 8z"/>
<path d="M2690 2089 c0 -5 11 -9 25 -9 14 0 25 2 25 4 0 2 -11 6 -25 8 -14 3
-25 1 -25 -3z"/>
<path d="M1290 2056 c-5 -14 -14 -26 -19 -26 -16 0 -19 -25 -5 -44 12 -18 15
-16 33 28 25 56 25 60 12 64 -6 2 -15 -8 -21 -22z"/>
<path d="M2770 2069 c0 -5 -5 -7 -11 -3 -7 4 -10 1 -7 -7 3 -9 20 -14 47 -15
24 0 46 -5 49 -10 10 -12 32 -16 32 -5 0 5 3 17 7 27 4 11 3 15 -4 11 -6 -4
-14 -1 -16 5 -4 10 -8 10 -15 -1 -7 -9 -12 -10 -16 -2 -9 14 -66 14 -66 0z"/>
<path d="M3447 2045 c-10 -14 -14 -25 -9 -25 10 0 42 33 42 43 0 14 -16 5 -33
-18z"/>
<path d="M3171 1987 c0 -10 -5 -16 -9 -13 -4 2 -19 -5 -32 -16 -16 -13 -19
-18 -7 -14 9 3 17 1 17 -4 0 -10 -47 -44 -64 -46 -6 0 -17 -2 -24 -2 -8 -1
-11 -9 -8 -20 4 -12 1 -19 -8 -19 -9 0 -12 5 -9 11 4 6 -3 3 -15 -8 -12 -10
-20 -23 -19 -30 1 -6 -5 -11 -13 -10 -8 0 -24 -8 -35 -19 -11 -11 -13 -17 -5
-13 8 4 7 1 -3 -7 -10 -9 -18 -18 -18 -21 2 -17 0 -20 -7 -9 -6 10 -12 10 -28
-2 -18 -15 -18 -15 0 -8 12 4 17 3 13 -4 -4 -6 8 -5 31 3 20 7 45 13 55 14 9
0 17 4 17 9 0 5 9 11 20 14 15 4 20 0 20 -13 0 -13 6 -18 20 -15 11 2 20 -2
20 -8 1 -7 7 -1 15 13 19 33 19 49 0 24 -8 -11 -15 -14 -15 -6 0 6 8 20 18 30
10 10 16 25 14 33 -3 8 -1 11 4 6 9 -9 46 82 38 95 -3 5 2 15 11 22 10 7 15
20 12 32 -4 17 -5 17 -6 1z m-130 -175 c-6 -2 -9 -8 -6 -13 4 -5 -1 -6 -9 -3
-20 8 -20 9 1 30 13 13 18 14 22 3 2 -7 -1 -15 -8 -17z"/>
<path d="M3085 1920 c-3 -5 -2 -10 4 -10 5 0 13 5 16 10 3 6 2 10 -4 10 -5 0
-13 -4 -16 -10z"/>
<path d="M3921 1914 c0 -11 3 -14 6 -6 3 7 2 16 -1 19 -3 4 -6 -2 -5 -13z"/>
<path d="M1460 1820 c0 -5 5 -10 10 -10 6 0 10 5 10 10 0 6 -4 10 -10 10 -5 0
-10 -4 -10 -10z"/>
<path d="M2126 1797 c3 -10 9 -15 12 -12 3 3 0 11 -7 18 -10 9 -11 8 -5 -6z"/>
<path d="M940 1751 c0 -17 2 -31 4 -31 8 0 13 51 5 56 -5 3 -9 -9 -9 -25z"/>
<path d="M1106 1772 c-3 -6 -1 -14 5 -17 14 -9 20 -2 10 14 -6 8 -11 9 -15 3z"/>
<path d="M862 1750 c0 -14 2 -19 5 -12 2 6 2 18 0 25 -3 6 -5 1 -5 -13z"/>
<path d="M1105 1730 c3 -5 10 -10 16 -10 5 0 9 5 9 10 0 6 -7 10 -16 10 -8 0
-12 -4 -9 -10z"/>
<path d="M2248 1723 c7 -3 16 -2 19 1 4 3 -2 6 -13 5 -11 0 -14 -3 -6 -6z"/>
<path d="M3498 1723 c6 -2 18 -2 25 0 6 3 1 5 -13 5 -14 0 -19 -2 -12 -5z"/>
</g>
</svg>
